<svg data-v-423bf9ae="" xmlns="http://www.w3.org/2000/svg" viewBox="0 0 590.1014085462759 60" class="font"><!----><!----><!----><g data-v-423bf9ae="" id="b11cd377-8a0f-468b-a16b-bd9bdade9a6f" fill="white" transform="matrix(5.529954208688035,0,0,5.529954208688035,-0.7741884839508089,-13.16129212636772)"><path d="M4.58 13.23L4.58 13.23Q3.40 13.23 2.39 12.82L2.39 12.82L2.39 12.82Q1.39 12.42 0.77 11.64L0.77 11.64L0.77 11.64Q0.15 10.86 0.14 9.80L0.14 9.80L0.14 9.80Q0.14 9.67 0.23 9.58L0.23 9.58L0.23 9.58Q0.32 9.49 0.45 9.49L0.45 9.49L3.30 9.49L3.30 9.49Q3.53 9.49 3.65 9.60L3.65 9.60L3.65 9.60Q3.77 9.70 3.88 9.94L3.88 9.94L3.88 9.94Q4.02 10.25 4.19 10.37L4.19 10.37L4.19 10.37Q4.37 10.50 4.69 10.50L4.69 10.50L4.69 10.50Q5.10 10.50 5.31 10.24L5.31 10.24L5.31 10.24Q5.52 9.98 5.52 9.37L5.52 9.37L5.52 6.13L1.36 6.13L1.36 6.13Q1.20 6.13 1.09 6.02L1.09 6.02L1.09 6.02Q0.98 5.91 0.98 5.75L0.98 5.75L0.98 3.67L0.98 3.67Q0.98 3.51 1.09 3.40L1.09 3.40L1.09 3.40Q1.20 3.29 1.36 3.29L1.36 3.29L8.76 3.29L8.76 3.29Q8.92 3.29 9.03 3.40L9.03 3.40L9.03 3.40Q9.14 3.51 9.14 3.67L9.14 3.67L9.14 9.48L9.14 9.48Q9.14 10.72 8.55 11.57L8.55 11.57L8.55 11.57Q7.95 12.42 6.92 12.82L6.92 12.82L6.92 12.82Q5.89 13.23 4.58 13.23L4.58 13.23ZM12.78 13.23L12.78 13.23Q12.00 13.23 11.38 12.94L11.38 12.94L11.38 12.94Q10.75 12.64 10.41 12.14L10.41 12.14L10.41 12.14Q10.07 11.63 10.07 11.00L10.07 11.00L10.07 11.00Q10.07 9.11 13.13 8.58L13.13 8.58L14.62 8.34L14.62 8.33L14.62 8.33Q14.62 7.92 14.55 7.78L14.55 7.78L14.55 7.78Q14.48 7.63 14.20 7.63L14.20 7.63L14.20 7.63Q14.04 7.63 13.93 7.69L13.93 7.69L13.93 7.69Q13.82 7.74 13.69 7.85L13.69 7.85L13.69 7.85Q13.57 7.97 13.47 8.02L13.47 8.02L13.47 8.02Q13.38 8.08 13.23 8.08L13.23 8.08L13.19 8.08L10.85 8.08L10.85 8.08Q10.72 8.08 10.63 8.00L10.63 8.00L10.63 8.00Q10.54 7.92 10.54 7.80L10.54 7.80L10.54 7.80Q10.54 7.39 10.94 6.89L10.94 6.89L10.94 6.89Q11.34 6.38 12.17 6.03L12.17 6.03L12.17 6.03Q13.01 5.67 14.22 5.67L14.22 5.67L14.22 5.67Q16.10 5.67 17.04 6.45L17.04 6.45L17.04 6.45Q17.98 7.24 17.98 8.69L17.98 8.69L17.98 12.71L17.98 12.71Q17.98 12.87 17.86 12.98L17.86 12.98L17.86 12.98Q17.75 13.09 17.60 13.09L17.60 13.09L15.15 13.09L15.15 13.09Q14.99 13.09 14.88 12.98L14.88 12.98L14.88 12.98Q14.77 12.87 14.77 12.71L14.77 12.71L14.77 12.32L14.77 12.32Q14.46 12.74 13.94 12.98L13.94 12.98L13.94 12.98Q13.43 13.23 12.78 13.23L12.78 13.23ZM13.75 11.16L13.75 11.16Q14.17 11.16 14.41 10.89L14.41 10.89L14.41 10.89Q14.66 10.63 14.66 10.08L14.66 10.08L14.66 10.07L13.83 10.25L13.83 10.25Q13.22 10.39 13.22 10.77L13.22 10.77L13.22 10.77Q13.22 10.93 13.36 11.05L13.36 11.05L13.36 11.05Q13.50 11.16 13.75 11.16L13.75 11.16ZM22.58 13.23L22.58 13.23Q21.32 13.23 20.48 12.90L20.48 12.90L20.48 12.90Q19.64 12.57 19.24 12.10L19.24 12.10L19.24 12.10Q18.84 11.62 18.84 11.20L18.84 11.20L18.84 11.20Q18.84 11.06 18.94 10.96L18.94 10.96L18.94 10.96Q19.04 10.85 19.18 10.85L19.18 10.85L21.62 10.85L21.67 10.85L21.67 10.85Q21.81 10.86 21.94 10.94L21.94 10.94L21.94 10.94Q22.06 11.02 22.11 11.05L22.11 11.05L22.11 11.05Q22.27 11.16 22.40 11.21L22.40 11.21L22.40 11.21Q22.53 11.27 22.68 11.27L22.68 11.27L22.68 11.27Q22.81 11.27 22.90 11.21L22.90 11.21L22.90 11.21Q23.00 11.16 23.00 11.06L23.00 11.06L23.00 11.06Q23.00 10.92 22.92 10.82L22.92 10.82L22.92 10.82Q22.83 10.72 22.52 10.63L22.52 10.63L22.52 10.63Q22.20 10.53 21.55 10.40L21.55 10.40L21.55 10.40Q20.43 10.19 19.71 9.64L19.71 9.64L19.71 9.64Q18.98 9.09 18.98 8.06L18.98 8.06L18.98 8.06Q18.98 7.45 19.40 6.89L19.40 6.89L19.40 6.89Q19.81 6.34 20.62 6.01L20.62 6.01L20.62 6.01Q21.42 5.67 22.53 5.67L22.53 5.67L22.53 5.67Q23.62 5.67 24.46 6.00L24.46 6.00L24.46 6.00Q25.30 6.33 25.75 6.80L25.75 6.80L25.75 6.80Q26.19 7.28 26.19 7.70L26.19 7.70L26.19 7.70Q26.19 7.84 26.10 7.94L26.10 7.94L26.10 7.94Q26.00 8.05 25.89 8.05L25.89 8.05L23.67 8.05L23.53 8.05L23.53 8.05Q23.41 8.05 23.28 7.99L23.28 7.99L23.28 7.99Q23.14 7.92 23.03 7.84L23.03 7.84L23.03 7.84Q22.74 7.63 22.51 7.63L22.51 7.63L22.51 7.63Q22.40 7.63 22.32 7.69L22.32 7.69L22.32 7.69Q22.23 7.76 22.23 7.85L22.23 7.85L22.23 7.85Q22.23 7.99 22.32 8.09L22.32 8.09L22.32 8.09Q22.41 8.18 22.74 8.27L22.74 8.27L22.74 8.27Q23.07 8.37 23.77 8.47L23.77 8.47L23.77 8.47Q25.17 8.68 25.84 9.34L25.84 9.34L25.84 9.34Q26.50 10.01 26.50 10.82L26.50 10.82L26.50 10.82Q26.50 11.96 25.48 12.59L25.48 12.59L25.48 12.59Q24.46 13.23 22.58 13.23L22.58 13.23ZM21.31 4.76L21.31 4.76Q21.08 4.76 21.08 4.54L21.08 4.54L21.08 4.54Q21.08 4.42 21.15 4.35L21.15 4.35L22.55 2.65L22.55 2.65Q22.71 2.48 22.81 2.43L22.81 2.43L22.81 2.43Q22.90 2.38 23.07 2.38L23.07 2.38L25.68 2.38L25.68 2.38Q25.80 2.38 25.87 2.46L25.87 2.46L25.87 2.46Q25.94 2.53 25.94 2.66L25.94 2.66L25.94 2.66Q25.94 2.76 25.87 2.83L25.87 2.83L23.81 4.52L23.81 4.52Q23.66 4.65 23.54 4.70L23.54 4.70L23.54 4.70Q23.42 4.76 23.23 4.76L23.23 4.76L21.31 4.76ZM30.55 13.09L30.55 13.09Q30.39 13.09 30.28 12.98L30.28 12.98L30.28 12.98Q30.17 12.87 30.17 12.71L30.17 12.71L30.17 3.67L30.17 3.67Q30.17 3.51 30.28 3.40L30.28 3.40L30.28 3.40Q30.39 3.29 30.55 3.29L30.55 3.29L33.40 3.29L33.40 3.29Q33.56 3.29 33.67 3.40L33.67 3.40L33.67 3.40Q33.78 3.51 33.78 3.67L33.78 3.67L33.78 12.71L33.78 12.71Q33.78 12.87 33.67 12.98L33.67 12.98L33.67 12.98Q33.56 13.09 33.40 13.09L33.40 13.09L30.55 13.09ZM35.56 13.09L35.56 13.09Q35.41 13.09 35.29 12.98L35.29 12.98L35.29 12.98Q35.18 12.87 35.18 12.71L35.18 12.71L35.18 6.19L35.18 6.19Q35.18 6.03 35.29 5.92L35.29 5.92L35.29 5.92Q35.41 5.81 35.56 5.81L35.56 5.81L38.01 5.81L38.01 5.81Q38.16 5.81 38.28 5.92L38.28 5.92L38.28 5.92Q38.39 6.03 38.39 6.19L38.39 6.19L38.39 6.65L38.39 6.65Q38.75 6.22 39.38 5.94L39.38 5.94L39.38 5.94Q40.00 5.67 40.71 5.67L40.71 5.67L40.71 5.67Q41.45 5.67 42.07 6.01L42.07 6.01L42.07 6.01Q42.69 6.36 43.06 7.07L43.06 7.07L43.06 7.07Q43.43 7.78 43.43 8.85L43.43 8.85L43.43 12.71L43.43 12.71Q43.43 12.87 43.32 12.98L43.32 12.98L43.32 12.98Q43.20 13.09 43.05 13.09L43.05 13.09L40.38 13.09L40.38 13.09Q40.22 13.09 40.11 12.98L40.11 12.98L40.11 12.98Q40.00 12.87 40.00 12.71L40.00 12.71L40.00 8.95L40.00 8.95Q40.00 8.57 39.82 8.37L39.82 8.37L39.82 8.37Q39.63 8.18 39.30 8.18L39.30 8.18L39.30 8.18Q38.96 8.18 38.78 8.37L38.78 8.37L38.78 8.37Q38.60 8.57 38.60 8.95L38.60 8.95L38.60 12.71L38.60 12.71Q38.60 12.87 38.49 12.98L38.49 12.98L38.49 12.98Q38.37 13.09 38.22 13.09L38.22 13.09L35.56 13.09ZM47.40 13.23L47.40 13.23Q46.10 13.23 45.30 12.45L45.30 12.45L45.30 12.45Q44.51 11.66 44.44 10.00L44.44 10.00L44.42 9.44L44.44 8.89L44.44 8.89Q44.49 7.31 45.31 6.49L45.31 6.49L45.31 6.49Q46.13 5.67 47.40 5.67L47.40 5.67L47.40 5.67Q48.54 5.67 49.27 6.33L49.27 6.33L49.27 3.53L49.27 3.53Q49.27 3.37 49.38 3.26L49.38 3.26L49.38 3.26Q49.49 3.15 49.64 3.15L49.64 3.15L52.23 3.15L52.23 3.15Q52.39 3.15 52.50 3.26L52.50 3.26L52.50 3.26Q52.61 3.37 52.61 3.53L52.61 3.53L52.61 12.71L52.61 12.71Q52.61 12.87 52.50 12.98L52.50 12.98L52.50 12.98Q52.39 13.09 52.23 13.09L52.23 13.09L49.85 13.09L49.85 13.09Q49.70 13.09 49.59 12.98L49.59 12.98L49.59 12.98Q49.48 12.87 49.48 12.71L49.48 12.71L49.48 12.39L49.48 12.39Q48.73 13.23 47.40 13.23L47.40 13.23ZM48.57 10.72L48.57 10.72Q48.93 10.72 49.08 10.52L49.08 10.52L49.08 10.52Q49.24 10.32 49.27 9.91L49.27 9.91L49.27 9.91Q49.29 9.49 49.29 9.39L49.29 9.39L49.29 9.39Q49.29 9.30 49.27 8.88L49.27 8.88L49.27 8.88Q49.24 8.53 49.08 8.35L49.08 8.35L49.08 8.35Q48.92 8.18 48.57 8.18L48.57 8.18L48.57 8.18Q48.20 8.18 48.05 8.37L48.05 8.37L48.05 8.37Q47.91 8.57 47.87 8.99L47.87 8.99L47.87 8.99Q47.85 9.13 47.85 9.45L47.85 9.45L47.85 9.45Q47.85 9.77 47.87 9.91L47.87 9.91L47.87 9.91Q47.91 10.33 48.05 10.53L48.05 10.53L48.05 10.53Q48.20 10.72 48.57 10.72L48.57 10.72ZM56.52 13.23L56.52 13.23Q55.78 13.23 55.16 12.89L55.16 12.89L55.16 12.89Q54.54 12.54 54.17 11.83L54.17 11.83L54.17 11.83Q53.80 11.12 53.80 10.05L53.80 10.05L53.80 6.19L53.80 6.19Q53.80 6.03 53.91 5.92L53.91 5.92L53.91 5.92Q54.03 5.81 54.18 5.81L54.18 5.81L56.85 5.81L56.85 5.81Q57.01 5.81 57.12 5.92L57.12 5.92L57.12 5.92Q57.23 6.03 57.23 6.19L57.23 6.19L57.23 9.95L57.23 9.95Q57.23 10.33 57.41 10.53L57.41 10.53L57.41 10.53Q57.60 10.72 57.93 10.72L57.93 10.72L57.93 10.72Q58.27 10.72 58.45 10.53L58.45 10.53L58.45 10.53Q58.63 10.33 58.63 9.95L58.63 9.95L58.63 6.19L58.63 6.19Q58.63 6.03 58.74 5.92L58.74 5.92L58.74 5.92Q58.86 5.81 59.01 5.81L59.01 5.81L61.67 5.81L61.67 5.81Q61.82 5.81 61.94 5.92L61.94 5.92L61.94 5.92Q62.05 6.03 62.05 6.19L62.05 6.19L62.05 12.71L62.05 12.71Q62.05 12.87 61.94 12.98L61.94 12.98L61.94 12.98Q61.82 13.09 61.67 13.09L61.67 13.09L59.22 13.09L59.22 13.09Q59.07 13.09 58.95 12.98L58.95 12.98L58.95 12.98Q58.84 12.87 58.84 12.71L58.84 12.71L58.84 12.25L58.84 12.25Q58.51 12.74 57.90 12.98L57.90 12.98L57.90 12.98Q57.30 13.23 56.52 13.23L56.52 13.23ZM66.72 13.23L66.72 13.23Q65.46 13.23 64.62 12.90L64.62 12.90L64.62 12.90Q63.78 12.57 63.38 12.10L63.38 12.10L63.38 12.10Q62.99 11.62 62.99 11.20L62.99 11.20L62.99 11.20Q62.99 11.06 63.08 10.96L63.08 10.96L63.08 10.96Q63.18 10.85 63.32 10.85L63.32 10.85L65.76 10.85L65.81 10.85L65.81 10.85Q65.95 10.86 66.08 10.94L66.08 10.94L66.08 10.94Q66.21 11.02 66.25 11.05L66.25 11.05L66.25 11.05Q66.42 11.16 66.54 11.21L66.54 11.21L66.54 11.21Q66.67 11.27 66.82 11.27L66.82 11.27L66.82 11.27Q66.95 11.27 67.05 11.21L67.05 11.21L67.05 11.21Q67.14 11.16 67.14 11.06L67.14 11.06L67.14 11.06Q67.14 10.92 67.06 10.82L67.06 10.82L67.06 10.82Q66.98 10.72 66.66 10.63L66.66 10.63L66.66 10.63Q66.35 10.53 65.69 10.40L65.69 10.40L65.69 10.40Q64.57 10.19 63.85 9.64L63.85 9.64L63.85 9.64Q63.13 9.09 63.13 8.06L63.13 8.06L63.13 8.06Q63.13 7.45 63.54 6.89L63.54 6.89L63.54 6.89Q63.95 6.34 64.76 6.01L64.76 6.01L64.76 6.01Q65.56 5.67 66.67 5.67L66.67 5.67L66.67 5.67Q67.76 5.67 68.60 6.00L68.60 6.00L68.60 6.00Q69.44 6.33 69.89 6.80L69.89 6.80L69.89 6.80Q70.34 7.28 70.34 7.70L70.34 7.70L70.34 7.70Q70.34 7.84 70.24 7.94L70.24 7.94L70.24 7.94Q70.14 8.05 70.03 8.05L70.03 8.05L67.82 8.05L67.68 8.05L67.68 8.05Q67.55 8.05 67.42 7.99L67.42 7.99L67.42 7.99Q67.28 7.92 67.17 7.84L67.17 7.84L67.17 7.84Q66.88 7.63 66.65 7.63L66.65 7.63L66.65 7.63Q66.54 7.63 66.46 7.69L66.46 7.69L66.46 7.69Q66.37 7.76 66.37 7.85L66.37 7.85L66.37 7.85Q66.37 7.99 66.47 8.09L66.47 8.09L66.47 8.09Q66.56 8.18 66.88 8.27L66.88 8.27L66.88 8.27Q67.21 8.37 67.91 8.47L67.91 8.47L67.91 8.47Q69.31 8.68 69.98 9.34L69.98 9.34L69.98 9.34Q70.64 10.01 70.64 10.82L70.64 10.82L70.64 10.82Q70.64 11.96 69.62 12.59L69.62 12.59L69.62 12.59Q68.60 13.23 66.72 13.23L66.72 13.23ZM76.08 13.09L76.08 13.09Q74.42 13.09 73.50 12.40L73.50 12.40L73.50 12.40Q72.58 11.70 72.58 10.08L72.58 10.08L72.58 8.26L71.47 8.26L71.47 8.26Q71.32 8.26 71.20 8.15L71.20 8.15L71.20 8.15Q71.09 8.04 71.09 7.88L71.09 7.88L71.09 6.19L71.09 6.19Q71.09 6.03 71.20 5.92L71.20 5.92L71.20 5.92Q71.32 5.81 71.47 5.81L71.47 5.81L72.58 5.81L72.58 3.53L72.58 3.53Q72.58 3.37 72.69 3.26L72.69 3.26L72.69 3.26Q72.80 3.15 72.95 3.15L72.95 3.15L75.40 3.15L75.40 3.15Q75.56 3.15 75.67 3.26L75.67 3.26L75.67 3.26Q75.78 3.37 75.78 3.53L75.78 3.53L75.78 5.81L77.55 5.81L77.55 5.81Q77.70 5.81 77.81 5.92L77.81 5.92L77.81 5.92Q77.92 6.03 77.92 6.19L77.92 6.19L77.92 7.88L77.92 7.88Q77.92 8.04 77.81 8.15L77.81 8.15L77.81 8.15Q77.70 8.26 77.55 8.26L77.55 8.26L75.78 8.26L75.78 9.80L75.78 9.80Q75.78 10.50 76.38 10.50L76.38 10.50L77.66 10.50L77.66 10.50Q77.81 10.50 77.92 10.61L77.92 10.61L77.92 10.61Q78.04 10.72 78.04 10.88L78.04 10.88L78.04 12.71L78.04 12.71Q78.04 12.87 77.92 12.98L77.92 12.98L77.92 12.98Q77.81 13.09 77.66 13.09L77.66 13.09L76.08 13.09ZM79.39 13.09L79.39 13.09Q79.24 13.09 79.13 12.98L79.13 12.98L79.13 12.98Q79.02 12.87 79.02 12.71L79.02 12.71L79.02 6.19L79.02 6.19Q79.02 6.03 79.13 5.92L79.13 5.92L79.13 5.92Q79.24 5.81 79.39 5.81L79.39 5.81L81.84 5.81L81.84 5.81Q82.00 5.81 82.11 5.92L82.11 5.92L82.11 5.92Q82.22 6.03 82.22 6.19L82.22 6.19L82.22 6.68L82.22 6.68Q82.68 6.27 83.24 6.04L83.24 6.04L83.24 6.04Q83.80 5.81 84.41 5.81L84.41 5.81L85.08 5.81L85.08 5.81Q85.23 5.81 85.34 5.92L85.34 5.92L85.34 5.92Q85.46 6.03 85.46 6.19L85.46 6.19L85.46 8.37L85.46 8.37Q85.46 8.53 85.34 8.64L85.34 8.64L85.34 8.64Q85.23 8.75 85.08 8.75L85.08 8.75L83.27 8.75L83.27 8.75Q82.43 8.75 82.43 9.59L82.43 9.59L82.43 12.71L82.43 12.71Q82.43 12.87 82.32 12.98L82.32 12.98L82.32 12.98Q82.21 13.09 82.05 13.09L82.05 13.09L79.39 13.09ZM86.72 5.04L86.72 5.04Q86.56 5.04 86.45 4.93L86.45 4.93L86.45 4.93Q86.34 4.82 86.34 4.66L86.34 4.66L86.34 2.97L86.34 2.97Q86.34 2.81 86.45 2.70L86.45 2.70L86.45 2.70Q86.56 2.59 86.72 2.59L86.72 2.59L89.08 2.59L89.08 2.59Q89.24 2.59 89.35 2.70L89.35 2.70L89.35 2.70Q89.46 2.81 89.46 2.97L89.46 2.97L89.46 4.66L89.46 4.66Q89.46 4.82 89.35 4.93L89.35 4.93L89.35 4.93Q89.24 5.04 89.08 5.04L89.08 5.04L86.72 5.04ZM86.65 13.09L86.65 13.09Q86.49 13.09 86.38 12.98L86.38 12.98L86.38 12.98Q86.27 12.87 86.27 12.71L86.27 12.71L86.27 6.19L86.27 6.19Q86.27 6.03 86.38 5.92L86.38 5.92L86.38 5.92Q86.49 5.81 86.65 5.81L86.65 5.81L89.15 5.81L89.15 5.81Q89.31 5.81 89.42 5.92L89.42 5.92L89.42 5.92Q89.53 6.03 89.53 6.19L89.53 6.19L89.53 12.71L89.53 12.71Q89.53 12.87 89.42 12.98L89.42 12.98L89.42 12.98Q89.31 13.09 89.15 13.09L89.15 13.09L86.65 13.09ZM94.56 13.23L94.56 13.23Q92.65 13.23 91.60 12.30L91.60 12.30L91.60 12.30Q90.55 11.37 90.55 9.46L90.55 9.46L90.55 9.37L90.55 9.37Q90.58 7.59 91.65 6.63L91.65 6.63L91.65 6.63Q92.72 5.67 94.54 5.67L94.54 5.67L94.54 5.67Q95.86 5.67 96.76 6.18L96.76 6.18L96.76 6.18Q97.66 6.69 98.10 7.55L98.10 7.55L98.10 7.55Q98.53 8.41 98.53 9.48L98.53 9.48L98.53 9.90L98.53 9.90Q98.53 10.05 98.42 10.16L98.42 10.16L98.42 10.16Q98.31 10.28 98.15 10.28L98.15 10.28L93.98 10.28L93.98 10.35L93.98 10.35Q93.98 10.78 94.11 10.99L94.11 10.99L94.11 10.99Q94.23 11.20 94.53 11.20L94.53 11.20L94.53 11.20Q94.64 11.20 94.71 11.15L94.71 11.15L94.71 11.15Q94.78 11.10 94.93 10.95L94.93 10.95L94.93 10.95Q95.06 10.82 95.14 10.79L95.14 10.79L95.14 10.79Q95.23 10.75 95.40 10.75L95.40 10.75L98.04 10.75L98.04 10.75Q98.17 10.75 98.26 10.83L98.26 10.83L98.26 10.83Q98.35 10.91 98.35 11.03L98.35 11.03L98.35 11.03Q98.35 11.42 97.92 11.95L97.92 11.95L97.92 11.95Q97.48 12.47 96.62 12.85L96.62 12.85L96.62 12.85Q95.76 13.23 94.56 13.23L94.56 13.23ZM93.98 8.53L95.10 8.53L95.10 8.51L95.10 8.51Q95.10 7.63 94.54 7.63L94.54 7.63L94.54 7.63Q93.98 7.63 93.98 8.51L93.98 8.51L93.98 8.53ZM102.93 13.23L102.93 13.23Q101.67 13.23 100.83 12.90L100.83 12.90L100.83 12.90Q99.99 12.57 99.59 12.10L99.59 12.10L99.59 12.10Q99.19 11.62 99.19 11.20L99.19 11.20L99.19 11.20Q99.19 11.06 99.29 10.96L99.29 10.96L99.29 10.96Q99.39 10.85 99.53 10.85L99.53 10.85L101.96 10.85L102.02 10.85L102.02 10.85Q102.16 10.86 102.28 10.94L102.28 10.94L102.28 10.94Q102.41 11.02 102.45 11.05L102.45 11.05L102.45 11.05Q102.62 11.16 102.75 11.21L102.75 11.21L102.75 11.21Q102.87 11.27 103.03 11.27L103.03 11.27L103.03 11.27Q103.15 11.27 103.25 11.21L103.25 11.21L103.25 11.21Q103.35 11.16 103.35 11.06L103.35 11.06L103.35 11.06Q103.35 10.92 103.26 10.82L103.26 10.82L103.26 10.82Q103.18 10.72 102.86 10.63L102.86 10.63L102.86 10.63Q102.55 10.53 101.89 10.40L101.89 10.40L101.89 10.40Q100.77 10.19 100.05 9.64L100.05 9.64L100.05 9.64Q99.33 9.09 99.33 8.06L99.33 8.06L99.33 8.06Q99.33 7.45 99.74 6.89L99.74 6.89L99.74 6.89Q100.16 6.34 100.96 6.01L100.96 6.01L100.96 6.01Q101.77 5.67 102.87 5.67L102.87 5.67L102.87 5.67Q103.96 5.67 104.80 6.00L104.80 6.00L104.80 6.00Q105.64 6.33 106.09 6.80L106.09 6.80L106.09 6.80Q106.54 7.28 106.54 7.70L106.54 7.70L106.54 7.70Q106.54 7.84 106.44 7.94L106.44 7.94L106.44 7.94Q106.34 8.05 106.23 8.05L106.23 8.05L104.02 8.05L103.88 8.05L103.88 8.05Q103.75 8.05 103.62 7.99L103.62 7.99L103.62 7.99Q103.49 7.92 103.38 7.84L103.38 7.84L103.38 7.84Q103.08 7.63 102.86 7.63L102.86 7.63L102.86 7.63Q102.75 7.63 102.66 7.69L102.66 7.69L102.66 7.69Q102.58 7.76 102.58 7.85L102.58 7.85L102.58 7.85Q102.58 7.99 102.67 8.09L102.67 8.09L102.67 8.09Q102.76 8.18 103.09 8.27L103.09 8.27L103.09 8.27Q103.42 8.37 104.12 8.47L104.12 8.47L104.12 8.47Q105.52 8.68 106.18 9.34L106.18 9.34L106.18 9.34Q106.85 10.01 106.85 10.82L106.85 10.82L106.85 10.82Q106.85 11.96 105.83 12.59L105.83 12.59L105.83 12.59Q104.80 13.23 102.93 13.23L102.93 13.23Z"></path></g><!----><!----></svg>