<svg data-v-fde0c5aa="" xmlns="http://www.w3.org/2000/svg" viewBox="0 0 300 300" class="iconLeftSlogan"><!----><defs data-v-fde0c5aa=""><!----></defs><rect data-v-fde0c5aa="" fill="#689D46" x="0" y="0" width="300px" height="300px" class="logo-background-square"></rect><defs data-v-fde0c5aa=""><!----></defs><g data-v-fde0c5aa="" id="bde78213-80d2-4564-bd7b-c68a4d96b3fd" fill="#EBC416" transform="matrix(1.586731213047675,0,0,1.586731213047675,90.45777133760596,127.61556315454338)"><path d="M4.58 13.23L4.58 13.23Q3.40 13.23 2.39 12.82L2.39 12.82L2.39 12.82Q1.39 12.42 0.77 11.64L0.77 11.64L0.77 11.64Q0.15 10.86 0.14 9.80L0.14 9.80L0.14 9.80Q0.14 9.67 0.23 9.58L0.23 9.58L0.23 9.58Q0.32 9.49 0.45 9.49L0.45 9.49L3.30 9.49L3.30 9.49Q3.53 9.49 3.65 9.60L3.65 9.60L3.65 9.60Q3.77 9.70 3.88 9.94L3.88 9.94L3.88 9.94Q4.02 10.25 4.19 10.37L4.19 10.37L4.19 10.37Q4.37 10.50 4.69 10.50L4.69 10.50L4.69 10.50Q5.10 10.50 5.31 10.24L5.31 10.24L5.31 10.24Q5.52 9.98 5.52 9.37L5.52 9.37L5.52 6.13L1.36 6.13L1.36 6.13Q1.20 6.13 1.09 6.02L1.09 6.02L1.09 6.02Q0.98 5.91 0.98 5.75L0.98 5.75L0.98 3.67L0.98 3.67Q0.98 3.51 1.09 3.40L1.09 3.40L1.09 3.40Q1.20 3.29 1.36 3.29L1.36 3.29L8.76 3.29L8.76 3.29Q8.92 3.29 9.03 3.40L9.03 3.40L9.03 3.40Q9.14 3.51 9.14 3.67L9.14 3.67L9.14 9.48L9.14 9.48Q9.14 10.72 8.55 11.57L8.55 11.57L8.55 11.57Q7.95 12.42 6.92 12.82L6.92 12.82L6.92 12.82Q5.89 13.23 4.58 13.23L4.58 13.23ZM12.78 13.23L12.78 13.23Q12.00 13.23 11.38 12.94L11.38 12.94L11.38 12.94Q10.75 12.64 10.41 12.14L10.41 12.14L10.41 12.14Q10.07 11.63 10.07 11.00L10.07 11.00L10.07 11.00Q10.07 9.11 13.13 8.58L13.13 8.58L14.62 8.34L14.62 8.33L14.62 8.33Q14.62 7.92 14.55 7.78L14.55 7.78L14.55 7.78Q14.48 7.63 14.20 7.63L14.20 7.63L14.20 7.63Q14.04 7.63 13.93 7.69L13.93 7.69L13.93 7.69Q13.82 7.74 13.69 7.85L13.69 7.85L13.69 7.85Q13.57 7.97 13.47 8.02L13.47 8.02L13.47 8.02Q13.38 8.08 13.23 8.08L13.23 8.08L13.19 8.08L10.85 8.08L10.85 8.08Q10.72 8.08 10.63 8.00L10.63 8.00L10.63 8.00Q10.54 7.92 10.54 7.80L10.54 7.80L10.54 7.80Q10.54 7.39 10.94 6.89L10.94 6.89L10.94 6.89Q11.34 6.38 12.17 6.03L12.17 6.03L12.17 6.03Q13.01 5.67 14.22 5.67L14.22 5.67L14.22 5.67Q16.10 5.67 17.04 6.45L17.04 6.45L17.04 6.45Q17.98 7.24 17.98 8.69L17.98 8.69L17.98 12.71L17.98 12.71Q17.98 12.87 17.86 12.98L17.86 12.98L17.86 12.98Q17.75 13.09 17.60 13.09L17.60 13.09L15.15 13.09L15.15 13.09Q14.99 13.09 14.88 12.98L14.88 12.98L14.88 12.98Q14.77 12.87 14.77 12.71L14.77 12.71L14.77 12.32L14.77 12.32Q14.46 12.74 13.94 12.98L13.94 12.98L13.94 12.98Q13.43 13.23 12.78 13.23L12.78 13.23ZM13.75 11.16L13.75 11.16Q14.17 11.16 14.41 10.89L14.41 10.89L14.41 10.89Q14.66 10.63 14.66 10.08L14.66 10.08L14.66 10.07L13.83 10.25L13.83 10.25Q13.22 10.39 13.22 10.77L13.22 10.77L13.22 10.77Q13.22 10.93 13.36 11.05L13.36 11.05L13.36 11.05Q13.50 11.16 13.75 11.16L13.75 11.16ZM22.58 13.23L22.58 13.23Q21.32 13.23 20.48 12.90L20.48 12.90L20.48 12.90Q19.64 12.57 19.24 12.10L19.24 12.10L19.24 12.10Q18.84 11.62 18.84 11.20L18.84 11.20L18.84 11.20Q18.84 11.06 18.94 10.96L18.94 10.96L18.94 10.96Q19.04 10.85 19.18 10.85L19.18 10.85L21.62 10.85L21.67 10.85L21.67 10.85Q21.81 10.86 21.94 10.94L21.94 10.94L21.94 10.94Q22.06 11.02 22.11 11.05L22.11 11.05L22.11 11.05Q22.27 11.16 22.40 11.21L22.40 11.21L22.40 11.21Q22.53 11.27 22.68 11.27L22.68 11.27L22.68 11.27Q22.81 11.27 22.90 11.21L22.90 11.21L22.90 11.21Q23.00 11.16 23.00 11.06L23.00 11.06L23.00 11.06Q23.00 10.92 22.92 10.82L22.92 10.82L22.92 10.82Q22.83 10.72 22.52 10.63L22.52 10.63L22.52 10.63Q22.20 10.53 21.55 10.40L21.55 10.40L21.55 10.40Q20.43 10.19 19.71 9.64L19.71 9.64L19.71 9.64Q18.98 9.09 18.98 8.06L18.98 8.06L18.98 8.06Q18.98 7.45 19.40 6.89L19.40 6.89L19.40 6.89Q19.81 6.34 20.62 6.01L20.62 6.01L20.62 6.01Q21.42 5.67 22.53 5.67L22.53 5.67L22.53 5.67Q23.62 5.67 24.46 6.00L24.46 6.00L24.46 6.00Q25.30 6.33 25.75 6.80L25.75 6.80L25.75 6.80Q26.19 7.28 26.19 7.70L26.19 7.70L26.19 7.70Q26.19 7.84 26.10 7.94L26.10 7.94L26.10 7.94Q26.00 8.05 25.89 8.05L25.89 8.05L23.67 8.05L23.53 8.05L23.53 8.05Q23.41 8.05 23.28 7.99L23.28 7.99L23.28 7.99Q23.14 7.92 23.03 7.84L23.03 7.84L23.03 7.84Q22.74 7.63 22.51 7.63L22.51 7.63L22.51 7.63Q22.40 7.63 22.32 7.69L22.32 7.69L22.32 7.69Q22.23 7.76 22.23 7.85L22.23 7.85L22.23 7.85Q22.23 7.99 22.32 8.09L22.32 8.09L22.32 8.09Q22.41 8.18 22.74 8.27L22.74 8.27L22.74 8.27Q23.07 8.37 23.77 8.47L23.77 8.47L23.77 8.47Q25.17 8.68 25.84 9.34L25.84 9.34L25.84 9.34Q26.50 10.01 26.50 10.82L26.50 10.82L26.50 10.82Q26.50 11.96 25.48 12.59L25.48 12.59L25.48 12.59Q24.46 13.23 22.58 13.23L22.58 13.23ZM21.31 4.76L21.31 4.76Q21.08 4.76 21.08 4.54L21.08 4.54L21.08 4.54Q21.08 4.42 21.15 4.35L21.15 4.35L22.55 2.65L22.55 2.65Q22.71 2.48 22.81 2.43L22.81 2.43L22.81 2.43Q22.90 2.38 23.07 2.38L23.07 2.38L25.68 2.38L25.68 2.38Q25.80 2.38 25.87 2.46L25.87 2.46L25.87 2.46Q25.94 2.53 25.94 2.66L25.94 2.66L25.94 2.66Q25.94 2.76 25.87 2.83L25.87 2.83L23.81 4.52L23.81 4.52Q23.66 4.65 23.54 4.70L23.54 4.70L23.54 4.70Q23.42 4.76 23.23 4.76L23.23 4.76L21.31 4.76ZM30.55 13.09L30.55 13.09Q30.39 13.09 30.28 12.98L30.28 12.98L30.28 12.98Q30.17 12.87 30.17 12.71L30.17 12.71L30.17 3.67L30.17 3.67Q30.17 3.51 30.28 3.40L30.28 3.40L30.28 3.40Q30.39 3.29 30.55 3.29L30.55 3.29L33.40 3.29L33.40 3.29Q33.56 3.29 33.67 3.40L33.67 3.40L33.67 3.40Q33.78 3.51 33.78 3.67L33.78 3.67L33.78 12.71L33.78 12.71Q33.78 12.87 33.67 12.98L33.67 12.98L33.67 12.98Q33.56 13.09 33.40 13.09L33.40 13.09L30.55 13.09ZM35.56 13.09L35.56 13.09Q35.41 13.09 35.29 12.98L35.29 12.98L35.29 12.98Q35.18 12.87 35.18 12.71L35.18 12.71L35.18 6.19L35.18 6.19Q35.18 6.03 35.29 5.92L35.29 5.92L35.29 5.92Q35.41 5.81 35.56 5.81L35.56 5.81L38.01 5.81L38.01 5.81Q38.16 5.81 38.28 5.92L38.28 5.92L38.28 5.92Q38.39 6.03 38.39 6.19L38.39 6.19L38.39 6.65L38.39 6.65Q38.75 6.22 39.38 5.94L39.38 5.94L39.38 5.94Q40.00 5.67 40.71 5.67L40.71 5.67L40.71 5.67Q41.45 5.67 42.07 6.01L42.07 6.01L42.07 6.01Q42.69 6.36 43.06 7.07L43.06 7.07L43.06 7.07Q43.43 7.78 43.43 8.85L43.43 8.85L43.43 12.71L43.43 12.71Q43.43 12.87 43.32 12.98L43.32 12.98L43.32 12.98Q43.20 13.09 43.05 13.09L43.05 13.09L40.38 13.09L40.38 13.09Q40.22 13.09 40.11 12.98L40.11 12.98L40.11 12.98Q40.00 12.87 40.00 12.71L40.00 12.71L40.00 8.95L40.00 8.95Q40.00 8.57 39.82 8.37L39.82 8.37L39.82 8.37Q39.63 8.18 39.30 8.18L39.30 8.18L39.30 8.18Q38.96 8.18 38.78 8.37L38.78 8.37L38.78 8.37Q38.60 8.57 38.60 8.95L38.60 8.95L38.60 12.71L38.60 12.71Q38.60 12.87 38.49 12.98L38.49 12.98L38.49 12.98Q38.37 13.09 38.22 13.09L38.22 13.09L35.56 13.09ZM47.40 13.23L47.40 13.23Q46.10 13.23 45.30 12.45L45.30 12.45L45.30 12.45Q44.51 11.66 44.44 10.00L44.44 10.00L44.42 9.44L44.44 8.89L44.44 8.89Q44.49 7.31 45.31 6.49L45.31 6.49L45.31 6.49Q46.13 5.67 47.40 5.67L47.40 5.67L47.40 5.67Q48.54 5.67 49.27 6.33L49.27 6.33L49.27 3.53L49.27 3.53Q49.27 3.37 49.38 3.26L49.38 3.26L49.38 3.26Q49.49 3.15 49.64 3.15L49.64 3.15L52.23 3.15L52.23 3.15Q52.39 3.15 52.50 3.26L52.50 3.26L52.50 3.26Q52.61 3.37 52.61 3.53L52.61 3.53L52.61 12.71L52.61 12.71Q52.61 12.87 52.50 12.98L52.50 12.98L52.50 12.98Q52.39 13.09 52.23 13.09L52.23 13.09L49.85 13.09L49.85 13.09Q49.70 13.09 49.59 12.98L49.59 12.98L49.59 12.98Q49.48 12.87 49.48 12.71L49.48 12.71L49.48 12.39L49.48 12.39Q48.73 13.23 47.40 13.23L47.40 13.23ZM48.57 10.72L48.57 10.72Q48.93 10.72 49.08 10.52L49.08 10.52L49.08 10.52Q49.24 10.32 49.27 9.91L49.27 9.91L49.27 9.91Q49.29 9.49 49.29 9.39L49.29 9.39L49.29 9.39Q49.29 9.30 49.27 8.88L49.27 8.88L49.27 8.88Q49.24 8.53 49.08 8.35L49.08 8.35L49.08 8.35Q48.92 8.18 48.57 8.18L48.57 8.18L48.57 8.18Q48.20 8.18 48.05 8.37L48.05 8.37L48.05 8.37Q47.91 8.57 47.87 8.99L47.87 8.99L47.87 8.99Q47.85 9.13 47.85 9.45L47.85 9.45L47.85 9.45Q47.85 9.77 47.87 9.91L47.87 9.91L47.87 9.91Q47.91 10.33 48.05 10.53L48.05 10.53L48.05 10.53Q48.20 10.72 48.57 10.72L48.57 10.72ZM56.52 13.23L56.52 13.23Q55.78 13.23 55.16 12.89L55.16 12.89L55.16 12.89Q54.54 12.54 54.17 11.83L54.17 11.83L54.17 11.83Q53.80 11.12 53.80 10.05L53.80 10.05L53.80 6.19L53.80 6.19Q53.80 6.03 53.91 5.92L53.91 5.92L53.91 5.92Q54.03 5.81 54.18 5.81L54.18 5.81L56.85 5.81L56.85 5.81Q57.01 5.81 57.12 5.92L57.12 5.92L57.12 5.92Q57.23 6.03 57.23 6.19L57.23 6.19L57.23 9.95L57.23 9.95Q57.23 10.33 57.41 10.53L57.41 10.53L57.41 10.53Q57.60 10.72 57.93 10.72L57.93 10.72L57.93 10.72Q58.27 10.72 58.45 10.53L58.45 10.53L58.45 10.53Q58.63 10.33 58.63 9.95L58.63 9.95L58.63 6.19L58.63 6.19Q58.63 6.03 58.74 5.92L58.74 5.92L58.74 5.92Q58.86 5.81 59.01 5.81L59.01 5.81L61.67 5.81L61.67 5.81Q61.82 5.81 61.94 5.92L61.94 5.92L61.94 5.92Q62.05 6.03 62.05 6.19L62.05 6.19L62.05 12.71L62.05 12.71Q62.05 12.87 61.94 12.98L61.94 12.98L61.94 12.98Q61.82 13.09 61.67 13.09L61.67 13.09L59.22 13.09L59.22 13.09Q59.07 13.09 58.95 12.98L58.95 12.98L58.95 12.98Q58.84 12.87 58.84 12.71L58.84 12.71L58.84 12.25L58.84 12.25Q58.51 12.74 57.90 12.98L57.90 12.98L57.90 12.98Q57.30 13.23 56.52 13.23L56.52 13.23ZM66.72 13.23L66.72 13.23Q65.46 13.23 64.62 12.90L64.62 12.90L64.62 12.90Q63.78 12.57 63.38 12.10L63.38 12.10L63.38 12.10Q62.99 11.62 62.99 11.20L62.99 11.20L62.99 11.20Q62.99 11.06 63.08 10.96L63.08 10.96L63.08 10.96Q63.18 10.85 63.32 10.85L63.32 10.85L65.76 10.85L65.81 10.85L65.81 10.85Q65.95 10.86 66.08 10.94L66.08 10.94L66.08 10.94Q66.21 11.02 66.25 11.05L66.25 11.05L66.25 11.05Q66.42 11.16 66.54 11.21L66.54 11.21L66.54 11.21Q66.67 11.27 66.82 11.27L66.82 11.27L66.82 11.27Q66.95 11.27 67.05 11.21L67.05 11.21L67.05 11.21Q67.14 11.16 67.14 11.06L67.14 11.06L67.14 11.06Q67.14 10.92 67.06 10.82L67.06 10.82L67.06 10.82Q66.98 10.72 66.66 10.63L66.66 10.63L66.66 10.63Q66.35 10.53 65.69 10.40L65.69 10.40L65.69 10.40Q64.57 10.19 63.85 9.64L63.85 9.64L63.85 9.64Q63.13 9.09 63.13 8.06L63.13 8.06L63.13 8.06Q63.13 7.45 63.54 6.89L63.54 6.89L63.54 6.89Q63.95 6.34 64.76 6.01L64.76 6.01L64.76 6.01Q65.56 5.67 66.67 5.67L66.67 5.67L66.67 5.67Q67.76 5.67 68.60 6.00L68.60 6.00L68.60 6.00Q69.44 6.33 69.89 6.80L69.89 6.80L69.89 6.80Q70.34 7.28 70.34 7.70L70.34 7.70L70.34 7.70Q70.34 7.84 70.24 7.94L70.24 7.94L70.24 7.94Q70.14 8.05 70.03 8.05L70.03 8.05L67.82 8.05L67.68 8.05L67.68 8.05Q67.55 8.05 67.42 7.99L67.42 7.99L67.42 7.99Q67.28 7.92 67.17 7.84L67.17 7.84L67.17 7.84Q66.88 7.63 66.65 7.63L66.65 7.63L66.65 7.63Q66.54 7.63 66.46 7.69L66.46 7.69L66.46 7.69Q66.37 7.76 66.37 7.85L66.37 7.85L66.37 7.85Q66.37 7.99 66.47 8.09L66.47 8.09L66.47 8.09Q66.56 8.18 66.88 8.27L66.88 8.27L66.88 8.27Q67.21 8.37 67.91 8.47L67.91 8.47L67.91 8.47Q69.31 8.68 69.98 9.34L69.98 9.34L69.98 9.34Q70.64 10.01 70.64 10.82L70.64 10.82L70.64 10.82Q70.64 11.96 69.62 12.59L69.62 12.59L69.62 12.59Q68.60 13.23 66.72 13.23L66.72 13.23ZM76.08 13.09L76.08 13.09Q74.42 13.09 73.50 12.40L73.50 12.40L73.50 12.40Q72.58 11.70 72.58 10.08L72.58 10.08L72.58 8.26L71.47 8.26L71.47 8.26Q71.32 8.26 71.20 8.15L71.20 8.15L71.20 8.15Q71.09 8.04 71.09 7.88L71.09 7.88L71.09 6.19L71.09 6.19Q71.09 6.03 71.20 5.92L71.20 5.92L71.20 5.92Q71.32 5.81 71.47 5.81L71.47 5.81L72.58 5.81L72.58 3.53L72.58 3.53Q72.58 3.37 72.69 3.26L72.69 3.26L72.69 3.26Q72.80 3.15 72.95 3.15L72.95 3.15L75.40 3.15L75.40 3.15Q75.56 3.15 75.67 3.26L75.67 3.26L75.67 3.26Q75.78 3.37 75.78 3.53L75.78 3.53L75.78 5.81L77.55 5.81L77.55 5.81Q77.70 5.81 77.81 5.92L77.81 5.92L77.81 5.92Q77.92 6.03 77.92 6.19L77.92 6.19L77.92 7.88L77.92 7.88Q77.92 8.04 77.81 8.15L77.81 8.15L77.81 8.15Q77.70 8.26 77.55 8.26L77.55 8.26L75.78 8.26L75.78 9.80L75.78 9.80Q75.78 10.50 76.38 10.50L76.38 10.50L77.66 10.50L77.66 10.50Q77.81 10.50 77.92 10.61L77.92 10.61L77.92 10.61Q78.04 10.72 78.04 10.88L78.04 10.88L78.04 12.71L78.04 12.71Q78.04 12.87 77.92 12.98L77.92 12.98L77.92 12.98Q77.81 13.09 77.66 13.09L77.66 13.09L76.08 13.09ZM79.39 13.09L79.39 13.09Q79.24 13.09 79.13 12.98L79.13 12.98L79.13 12.98Q79.02 12.87 79.02 12.71L79.02 12.71L79.02 6.19L79.02 6.19Q79.02 6.03 79.13 5.92L79.13 5.92L79.13 5.92Q79.24 5.81 79.39 5.81L79.39 5.81L81.84 5.81L81.84 5.81Q82.00 5.81 82.11 5.92L82.11 5.92L82.11 5.92Q82.22 6.03 82.22 6.19L82.22 6.19L82.22 6.68L82.22 6.68Q82.68 6.27 83.24 6.04L83.24 6.04L83.24 6.04Q83.80 5.81 84.41 5.81L84.41 5.81L85.08 5.81L85.08 5.81Q85.23 5.81 85.34 5.92L85.34 5.92L85.34 5.92Q85.46 6.03 85.46 6.19L85.46 6.19L85.46 8.37L85.46 8.37Q85.46 8.53 85.34 8.64L85.34 8.64L85.34 8.64Q85.23 8.75 85.08 8.75L85.08 8.75L83.27 8.75L83.27 8.75Q82.43 8.75 82.43 9.59L82.43 9.59L82.43 12.71L82.43 12.71Q82.43 12.87 82.32 12.98L82.32 12.98L82.32 12.98Q82.21 13.09 82.05 13.09L82.05 13.09L79.39 13.09ZM86.72 5.04L86.72 5.04Q86.56 5.04 86.45 4.93L86.45 4.93L86.45 4.93Q86.34 4.82 86.34 4.66L86.34 4.66L86.34 2.97L86.34 2.97Q86.34 2.81 86.45 2.70L86.45 2.70L86.45 2.70Q86.56 2.59 86.72 2.59L86.72 2.59L89.08 2.59L89.08 2.59Q89.24 2.59 89.35 2.70L89.35 2.70L89.35 2.70Q89.46 2.81 89.46 2.97L89.46 2.97L89.46 4.66L89.46 4.66Q89.46 4.82 89.35 4.93L89.35 4.93L89.35 4.93Q89.24 5.04 89.08 5.04L89.08 5.04L86.72 5.04ZM86.65 13.09L86.65 13.09Q86.49 13.09 86.38 12.98L86.38 12.98L86.38 12.98Q86.27 12.87 86.27 12.71L86.27 12.71L86.27 6.19L86.27 6.19Q86.27 6.03 86.38 5.92L86.38 5.92L86.38 5.92Q86.49 5.81 86.65 5.81L86.65 5.81L89.15 5.81L89.15 5.81Q89.31 5.81 89.42 5.92L89.42 5.92L89.42 5.92Q89.53 6.03 89.53 6.19L89.53 6.19L89.53 12.71L89.53 12.71Q89.53 12.87 89.42 12.98L89.42 12.98L89.42 12.98Q89.31 13.09 89.15 13.09L89.15 13.09L86.65 13.09ZM94.56 13.23L94.56 13.23Q92.65 13.23 91.60 12.30L91.60 12.30L91.60 12.30Q90.55 11.37 90.55 9.46L90.55 9.46L90.55 9.37L90.55 9.37Q90.58 7.59 91.65 6.63L91.65 6.63L91.65 6.63Q92.72 5.67 94.54 5.67L94.54 5.67L94.54 5.67Q95.86 5.67 96.76 6.18L96.76 6.18L96.76 6.18Q97.66 6.69 98.10 7.55L98.10 7.55L98.10 7.55Q98.53 8.41 98.53 9.48L98.53 9.48L98.53 9.90L98.53 9.90Q98.53 10.05 98.42 10.16L98.42 10.16L98.42 10.16Q98.31 10.28 98.15 10.28L98.15 10.28L93.98 10.28L93.98 10.35L93.98 10.35Q93.98 10.78 94.11 10.99L94.11 10.99L94.11 10.99Q94.23 11.20 94.53 11.20L94.53 11.20L94.53 11.20Q94.64 11.20 94.71 11.15L94.71 11.15L94.71 11.15Q94.78 11.10 94.93 10.95L94.93 10.95L94.93 10.95Q95.06 10.82 95.14 10.79L95.14 10.79L95.14 10.79Q95.23 10.75 95.40 10.75L95.40 10.75L98.04 10.75L98.04 10.75Q98.17 10.75 98.26 10.83L98.26 10.83L98.26 10.83Q98.35 10.91 98.35 11.03L98.35 11.03L98.35 11.03Q98.35 11.42 97.92 11.95L97.92 11.95L97.92 11.95Q97.48 12.47 96.62 12.85L96.62 12.85L96.62 12.85Q95.76 13.23 94.56 13.23L94.56 13.23ZM93.98 8.53L95.10 8.53L95.10 8.51L95.10 8.51Q95.10 7.63 94.54 7.63L94.54 7.63L94.54 7.63Q93.98 7.63 93.98 8.51L93.98 8.51L93.98 8.53ZM102.93 13.23L102.93 13.23Q101.67 13.23 100.83 12.90L100.83 12.90L100.83 12.90Q99.99 12.57 99.59 12.10L99.59 12.10L99.59 12.10Q99.19 11.62 99.19 11.20L99.19 11.20L99.19 11.20Q99.19 11.06 99.29 10.96L99.29 10.96L99.29 10.96Q99.39 10.85 99.53 10.85L99.53 10.85L101.96 10.85L102.02 10.85L102.02 10.85Q102.16 10.86 102.28 10.94L102.28 10.94L102.28 10.94Q102.41 11.02 102.45 11.05L102.45 11.05L102.45 11.05Q102.62 11.16 102.75 11.21L102.75 11.21L102.75 11.21Q102.87 11.27 103.03 11.27L103.03 11.27L103.03 11.27Q103.15 11.27 103.25 11.21L103.25 11.21L103.25 11.21Q103.35 11.16 103.35 11.06L103.35 11.06L103.35 11.06Q103.35 10.92 103.26 10.82L103.26 10.82L103.26 10.82Q103.18 10.72 102.86 10.63L102.86 10.63L102.86 10.63Q102.55 10.53 101.89 10.40L101.89 10.40L101.89 10.40Q100.77 10.19 100.05 9.64L100.05 9.64L100.05 9.64Q99.33 9.09 99.33 8.06L99.33 8.06L99.33 8.06Q99.33 7.45 99.74 6.89L99.74 6.89L99.74 6.89Q100.16 6.34 100.96 6.01L100.96 6.01L100.96 6.01Q101.77 5.67 102.87 5.67L102.87 5.67L102.87 5.67Q103.96 5.67 104.80 6.00L104.80 6.00L104.80 6.00Q105.64 6.33 106.09 6.80L106.09 6.80L106.09 6.80Q106.54 7.28 106.54 7.70L106.54 7.70L106.54 7.70Q106.54 7.84 106.44 7.94L106.44 7.94L106.44 7.94Q106.34 8.05 106.23 8.05L106.23 8.05L104.02 8.05L103.88 8.05L103.88 8.05Q103.75 8.05 103.62 7.99L103.62 7.99L103.62 7.99Q103.49 7.92 103.38 7.84L103.38 7.84L103.38 7.84Q103.08 7.63 102.86 7.63L102.86 7.63L102.86 7.63Q102.75 7.63 102.66 7.69L102.66 7.69L102.66 7.69Q102.58 7.76 102.58 7.85L102.58 7.85L102.58 7.85Q102.58 7.99 102.67 8.09L102.67 8.09L102.67 8.09Q102.76 8.18 103.09 8.27L103.09 8.27L103.09 8.27Q103.42 8.37 104.12 8.47L104.12 8.47L104.12 8.47Q105.52 8.68 106.18 9.34L106.18 9.34L106.18 9.34Q106.85 10.01 106.85 10.82L106.85 10.82L106.85 10.82Q106.85 11.96 105.83 12.59L105.83 12.59L105.83 12.59Q104.80 13.23 102.93 13.23L102.93 13.23Z"></path></g><defs data-v-fde0c5aa=""><!----></defs><g data-v-fde0c5aa="" id="7119d1e2-4689-49b7-b905-755c31494e63" stroke="none" fill="#EBC416" transform="matrix(1.1774973033868252,0,0,1.1774973033868252,40,131.17888398305695)"><path d="M0 31.984h32v-32H0v32zm2-30h28v28H2v-28z"></path><path d="M6.439 16.831h8.959l-4.48-7.741zM16.602 13.331h8.959L21.082 5.59zM6.439 26.41h8.959l-4.48-7.741zM16.602 22.91h8.959l-4.479-7.741z"></path></g><defs data-v-fde0c5aa=""><!----></defs><g data-v-fde0c5aa="" id="8426b3eb-6f18-4166-8a32-293887745111" fill="#EBC416" transform="matrix(0.3942168854564315,0,0,0.3942168854564315,90.34482934634158,156.74337050108818)"><path d="M2.04 16.24L2.04 16.24L2.04 16.24Q1.37 16.04 1.11 15.85L1.11 15.85L1.11 15.85Q0.85 15.65 0.85 15.36L0.85 15.36L0.85 15.36Q0.85 15.13 0.98 14.73L0.98 14.73L0.98 14.73Q1.11 14.32 1.35 13.77L1.35 13.77L1.35 13.77Q1.60 13.22 1.94 12.54L1.94 12.54L1.94 12.54Q2.28 11.87 2.72 11.10L2.72 11.10L2.72 11.10Q2.35 11.09 2.06 11.08L2.06 11.08L2.06 11.08Q1.78 11.07 1.60 11.07L1.60 11.07L1.60 11.07Q1.68 10.86 2.07 10.71L2.07 10.71L2.07 10.71Q2.46 10.56 3.11 10.44L3.11 10.44L3.11 10.44Q3.65 9.53 4.28 8.71L4.28 8.71L4.28 8.71Q4.90 7.88 5.53 7.19L5.53 7.19L5.53 7.19Q6.16 6.50 6.79 5.97L6.79 5.97L6.79 5.97Q7.42 5.45 7.99 5.14L7.99 5.14L7.99 5.14Q8.01 5.04 8.02 4.97L8.02 4.97L8.02 4.97Q8.02 4.90 8.02 4.87L8.02 4.87L8.02 4.87Q8.22 4.87 8.55 4.97L8.55 4.97L8.55 4.97Q8.88 5.07 9.19 5.21L9.19 5.21L9.19 5.21Q9.51 5.35 9.75 5.49L9.75 5.49L9.75 5.49Q10.00 5.64 10.02 5.74L10.02 5.74L10.02 5.74Q9.56 6.55 9.11 8.17L9.11 8.17L9.11 8.17Q8.67 9.79 8.37 12.04L8.37 12.04L8.37 12.04Q8.30 12.60 8.25 13.31L8.25 13.31L8.25 13.31Q8.20 14.03 8.20 14.91L8.20 14.91L8.20 14.91Q8.20 15.22 8.20 15.54L8.20 15.54L8.20 15.54Q8.20 15.86 8.23 16.21L8.23 16.21L8.23 16.21Q8.20 16.23 8.18 16.23L8.18 16.23L8.18 16.23Q8.15 16.23 8.06 16.23L8.06 16.23L8.06 16.23Q7.87 16.23 7.61 16.16L7.61 16.16L7.61 16.16Q7.35 16.10 7.11 16.01L7.11 16.01L7.11 16.01Q6.86 15.92 6.69 15.81L6.69 15.81L6.69 15.81Q6.51 15.69 6.47 15.61L6.47 15.61L6.47 15.61Q6.45 15.43 6.45 15.25L6.45 15.25L6.45 15.25Q6.45 15.08 6.45 14.88L6.45 14.88L6.45 14.88Q6.45 14.01 6.52 13.12L6.52 13.12L6.52 13.12Q6.58 12.22 6.73 11.27L6.73 11.27L6.73 11.27Q6.54 11.26 6.22 11.23L6.22 11.23L6.22 11.23Q5.89 11.21 5.50 11.20L5.50 11.20L5.50 11.20Q5.10 11.19 4.64 11.16L4.64 11.16L4.64 11.16Q4.19 11.14 3.75 11.13L3.75 11.13L3.75 11.13Q3.42 11.76 3.12 12.38L3.12 12.38L3.12 12.38Q2.83 13.01 2.62 13.64L2.62 13.64L2.62 13.64Q2.38 14.31 2.23 14.98L2.23 14.98L2.23 14.98Q2.09 15.65 2.04 16.24ZM7.45 7.83L7.45 7.83L7.45 7.83Q7.50 7.63 7.58 7.29L7.58 7.29L7.58 7.29Q7.66 6.94 7.73 6.57L7.73 6.57L7.73 6.57Q7.38 6.69 6.95 7.03L6.95 7.03L6.95 7.03Q6.52 7.36 6.07 7.86L6.07 7.86L6.07 7.86Q5.61 8.36 5.15 8.98L5.15 8.98L5.15 8.98Q4.68 9.60 4.24 10.30L4.24 10.30L4.24 10.30Q5.42 10.21 6.92 10.18L6.92 10.18L6.92 10.18Q7.03 9.59 7.16 9.01L7.16 9.01L7.16 9.01Q7.29 8.43 7.45 7.83ZM18.65 16.24L18.65 16.24L18.65 16.24Q17.85 16.00 17.57 15.79L17.57 15.79L17.57 15.79Q17.29 15.57 17.29 15.19L17.29 15.19L17.29 15.19Q17.29 14.77 17.49 14.01L17.49 14.01L17.49 14.01Q17.68 13.24 18.00 12.31L18.00 12.31L18.00 12.31Q18.31 11.37 18.72 10.35L18.72 10.35L18.72 10.35Q19.12 9.32 19.54 8.39L19.54 8.39L19.54 8.39Q19.96 7.45 20.36 6.67L20.36 6.67L20.36 6.67Q20.76 5.89 21.07 5.46L21.07 5.46L20.97 4.87L20.97 4.87Q21.17 4.87 21.52 4.97L21.52 4.97L21.52 4.97Q21.87 5.07 22.23 5.21L22.23 5.21L22.23 5.21Q22.58 5.35 22.86 5.49L22.86 5.49L22.86 5.49Q23.13 5.64 23.16 5.74L23.16 5.74L23.16 5.74Q23.09 6.08 23.04 6.76L23.04 6.76L23.04 6.76Q23.00 7.43 23.00 8.20L23.00 8.20L23.00 8.20Q23.00 9.73 23.12 11.19L23.12 11.19L23.12 11.19Q23.24 12.66 23.67 14.17L23.67 14.17L23.67 14.17Q23.90 13.05 24.16 11.94L24.16 11.94L24.16 11.94Q24.42 10.82 24.70 9.81L24.70 9.81L24.70 9.81Q24.98 8.79 25.26 7.92L25.26 7.92L25.26 7.92Q25.54 7.06 25.80 6.40L25.80 6.40L25.80 6.40Q26.05 5.75 26.28 5.38L26.28 5.38L26.28 5.38Q26.50 5.01 26.68 4.98L26.68 4.98L26.68 4.98Q26.84 5.01 27.02 5.10L27.02 5.10L27.02 5.10Q27.20 5.19 27.37 5.32L27.37 5.32L27.37 5.32Q27.54 5.45 27.68 5.60L27.68 5.60L27.68 5.60Q27.82 5.75 27.90 5.91L27.90 5.91L27.90 5.91Q27.45 6.09 27.01 6.76L27.01 6.76L27.01 6.76Q26.57 7.43 26.17 8.39L26.17 8.39L26.17 8.39Q25.77 9.35 25.43 10.47L25.43 10.47L25.43 10.47Q25.09 11.59 24.83 12.68L24.83 12.68L24.83 12.68Q24.57 13.76 24.42 14.69L24.42 14.69L24.42 14.69Q24.28 15.61 24.26 16.17L24.26 16.17L24.26 16.17Q24.26 16.20 24.28 16.21L24.28 16.21L24.28 16.21Q24.23 16.23 24.19 16.23L24.19 16.23L24.19 16.23Q24.14 16.23 24.09 16.23L24.09 16.23L24.09 16.23Q23.45 16.23 22.95 16.07L22.95 16.07L22.95 16.07Q22.46 15.90 22.30 15.61L22.30 15.61L22.30 15.61Q22.01 14.43 21.81 13.34L21.81 13.34L21.81 13.34Q21.62 12.25 21.48 11.16L21.48 11.16L21.48 11.16Q21.35 10.07 21.27 8.95L21.27 8.95L21.27 8.95Q21.20 7.84 21.15 6.62L21.15 6.62L21.15 6.62Q20.89 7.04 20.59 7.72L20.59 7.72L20.59 7.72Q20.30 8.40 20.02 9.21L20.02 9.21L20.02 9.21Q19.74 10.02 19.48 10.92L19.48 10.92L19.48 10.92Q19.22 11.82 19.03 12.67L19.03 12.67L19.03 12.67Q18.83 13.52 18.72 14.29L18.72 14.29L18.72 14.29Q18.61 15.05 18.61 15.61L18.61 15.61L18.61 15.61Q18.61 15.90 18.61 16.03L18.61 16.03L18.61 16.03Q18.62 16.16 18.65 16.24ZM34.38 14.38L34.38 14.38L34.38 14.38Q34.38 13.87 34.54 13.07L34.54 13.07L34.54 13.07Q34.71 12.26 34.96 11.33L34.96 11.33L34.96 11.33Q35.22 10.40 35.56 9.43L35.56 9.43L35.56 9.43Q35.90 8.46 36.25 7.60L36.25 7.60L36.25 7.60Q36.60 6.75 36.93 6.10L36.93 6.10L36.93 6.10Q37.27 5.46 37.53 5.18L37.53 5.18L37.53 5.18Q37.67 5.19 37.91 5.29L37.91 5.29L37.91 5.29Q38.14 5.38 38.37 5.50L38.37 5.50L38.37 5.50Q38.61 5.63 38.81 5.78L38.81 5.78L38.81 5.78Q39.00 5.92 39.06 6.05L39.06 6.05L39.06 6.05Q38.65 6.41 38.25 7.15L38.25 7.15L38.25 7.15Q37.86 7.88 37.48 8.82L37.48 8.82L37.48 8.82Q37.11 9.76 36.79 10.80L36.79 10.80L36.79 10.80Q36.47 11.84 36.23 12.82L36.23 12.82L36.23 12.82Q35.99 13.80 35.86 14.64L35.86 14.64L35.86 14.64Q35.73 15.48 35.73 16.00L35.73 16.00L35.73 16.00Q35.73 16.24 35.77 16.30L35.77 16.30L35.77 16.30Q35.46 16.28 35.32 16.19L35.32 16.19L35.32 16.19Q35.18 16.10 35.10 16.00L35.10 16.00L35.10 16.00Q35.03 15.89 34.96 15.79L34.96 15.79L34.96 15.79Q34.90 15.68 34.78 15.62L34.78 15.62L34.78 15.62Q34.68 15.58 34.61 15.43L34.61 15.43L34.61 15.43Q34.54 15.27 34.49 15.09L34.49 15.09L34.49 15.09Q34.44 14.90 34.41 14.70L34.41 14.70L34.41 14.70Q34.38 14.50 34.38 14.38ZM51.16 16.21L51.16 16.21L51.16 16.21Q51.13 16.23 51.10 16.23L51.10 16.23L51.10 16.23Q51.07 16.23 50.99 16.23L50.99 16.23L50.99 16.23Q50.79 16.23 50.53 16.16L50.53 16.16L50.53 16.16Q50.27 16.10 50.03 16.01L50.03 16.01L50.03 16.01Q49.78 15.92 49.61 15.81L49.61 15.81L49.61 15.81Q49.43 15.69 49.39 15.61L49.39 15.61L49.39 15.61Q49.38 15.41 49.38 15.20L49.38 15.20L49.38 15.20Q49.38 14.99 49.38 14.80L49.38 14.80L49.38 14.80Q49.38 13.23 49.61 11.52L49.61 11.52L49.61 11.52Q49.84 9.81 50.37 7.83L50.37 7.83L50.37 7.83Q50.43 7.63 50.49 7.33L50.49 7.33L50.49 7.33Q50.55 7.03 50.62 6.68L50.62 6.68L50.62 6.68Q50.29 6.94 49.83 7.53L49.83 7.53L49.83 7.53Q49.36 8.11 48.85 8.90L48.85 8.90L48.85 8.90Q48.34 9.69 47.83 10.63L47.83 10.63L47.83 10.63Q47.32 11.58 46.90 12.55L46.90 12.55L46.90 12.55Q46.48 13.52 46.18 14.48L46.18 14.48L46.18 14.48Q45.88 15.43 45.81 16.24L45.81 16.24L45.81 16.24Q45.14 16.04 44.88 15.85L44.88 15.85L44.88 15.85Q44.62 15.65 44.62 15.37L44.62 15.37L44.62 15.37Q44.62 15.12 44.77 14.66L44.77 14.66L44.77 14.66Q44.93 14.20 45.21 13.57L45.21 13.57L45.21 13.57Q45.49 12.94 45.89 12.16L45.89 12.16L45.89 12.16Q46.30 11.38 46.79 10.49L46.79 10.49L46.79 10.49Q47.35 9.46 47.89 8.57L47.89 8.57L47.89 8.57Q48.43 7.67 48.94 6.94L48.94 6.94L48.94 6.94Q49.46 6.22 49.96 5.68L49.96 5.68L49.96 5.68Q50.46 5.15 50.95 4.87L50.95 4.87L50.95 4.87Q51.14 4.87 51.47 4.97L51.47 4.97L51.47 4.97Q51.80 5.07 52.11 5.21L52.11 5.21L52.11 5.21Q52.43 5.35 52.67 5.49L52.67 5.49L52.67 5.49Q52.92 5.64 52.95 5.74L52.95 5.74L52.95 5.74Q52.75 6.13 52.49 6.92L52.49 6.92L52.49 6.92Q52.22 7.70 51.95 8.69L51.95 8.69L51.95 8.69Q51.67 9.69 51.43 10.80L51.43 10.80L51.43 10.80Q51.18 11.91 51.04 12.94L51.04 12.94L51.04 12.94Q51.37 12.17 51.79 11.33L51.79 11.33L51.79 11.33Q52.22 10.50 52.70 9.68L52.70 9.68L52.70 9.68Q53.17 8.86 53.67 8.09L53.67 8.09L53.67 8.09Q54.17 7.32 54.64 6.69L54.64 6.69L54.64 6.69Q55.12 6.05 55.53 5.57L55.53 5.57L55.53 5.57Q55.94 5.10 56.27 4.87L56.27 4.87L56.27 4.87Q56.46 4.87 56.79 4.97L56.79 4.97L56.79 4.97Q57.12 5.07 57.43 5.21L57.43 5.21L57.43 5.21Q57.75 5.35 57.99 5.49L57.99 5.49L57.99 5.49Q58.24 5.64 58.27 5.74L58.27 5.74L58.27 5.74Q57.82 6.54 57.48 7.69L57.48 7.69L57.48 7.69Q57.15 8.83 56.92 10.09L56.92 10.09L56.92 10.09Q56.69 11.35 56.57 12.59L56.57 12.59L56.57 12.59Q56.45 13.83 56.45 14.81L56.45 14.81L56.45 14.81Q56.45 15.13 56.45 15.48L56.45 15.48L56.45 15.48Q56.45 15.83 56.48 16.21L56.48 16.21L56.48 16.21Q56.28 16.21 56.01 16.16L56.01 16.16L56.01 16.16Q55.73 16.11 55.47 16.03L55.47 16.03L55.47 16.03Q55.22 15.95 55.01 15.84L55.01 15.84L55.01 15.84Q54.80 15.74 54.71 15.61L54.71 15.61L54.71 15.61Q54.70 15.41 54.70 15.20L54.70 15.20L54.70 15.20Q54.70 14.99 54.70 14.80L54.70 14.80L54.70 14.80Q54.70 13.23 54.93 11.52L54.93 11.52L54.93 11.52Q55.16 9.81 55.69 7.83L55.69 7.83L55.69 7.83Q55.75 7.63 55.82 7.29L55.82 7.29L55.82 7.29Q55.89 6.96 55.96 6.59L55.96 6.59L55.96 6.59Q55.57 6.79 55.07 7.34L55.07 7.34L55.07 7.34Q54.57 7.90 54.06 8.69L54.06 8.69L54.06 8.69Q53.55 9.48 53.05 10.44L53.05 10.44L53.05 10.44Q52.56 11.41 52.16 12.41L52.16 12.41L52.16 12.41Q51.76 13.41 51.48 14.40L51.48 14.40L51.48 14.40Q51.21 15.39 51.16 16.21ZM66.19 16.24L66.19 16.24L66.19 16.24Q65.52 16.04 65.26 15.85L65.26 15.85L65.26 15.85Q65.00 15.65 65.00 15.36L65.00 15.36L65.00 15.36Q65.00 15.13 65.13 14.73L65.13 14.73L65.13 14.73Q65.25 14.32 65.50 13.77L65.50 13.77L65.50 13.77Q65.74 13.22 66.09 12.54L66.09 12.54L66.09 12.54Q66.43 11.87 66.86 11.10L66.86 11.10L66.86 11.10Q66.50 11.09 66.21 11.08L66.21 11.08L66.21 11.08Q65.93 11.07 65.74 11.07L65.74 11.07L65.74 11.07Q65.83 10.86 66.22 10.71L66.22 10.71L66.22 10.71Q66.61 10.56 67.26 10.44L67.26 10.44L67.26 10.44Q67.80 9.53 68.42 8.71L68.42 8.71L68.42 8.71Q69.05 7.88 69.68 7.19L69.68 7.19L69.68 7.19Q70.31 6.50 70.94 5.97L70.94 5.97L70.94 5.97Q71.57 5.45 72.14 5.14L72.14 5.14L72.14 5.14Q72.16 5.04 72.16 4.97L72.16 4.97L72.16 4.97Q72.17 4.90 72.17 4.87L72.17 4.87L72.17 4.87Q72.37 4.87 72.69 4.97L72.69 4.97L72.69 4.97Q73.02 5.07 73.34 5.21L73.34 5.21L73.34 5.21Q73.65 5.35 73.90 5.49L73.90 5.49L73.90 5.49Q74.14 5.64 74.17 5.74L74.17 5.74L74.17 5.74Q73.71 6.55 73.26 8.17L73.26 8.17L73.26 8.17Q72.81 9.79 72.52 12.04L72.52 12.04L72.52 12.04Q72.45 12.60 72.40 13.31L72.40 13.31L72.40 13.31Q72.35 14.03 72.35 14.91L72.35 14.91L72.35 14.91Q72.35 15.22 72.35 15.54L72.35 15.54L72.35 15.54Q72.35 15.86 72.38 16.21L72.38 16.21L72.38 16.21Q72.35 16.23 72.32 16.23L72.32 16.23L72.32 16.23Q72.30 16.23 72.21 16.23L72.21 16.23L72.21 16.23Q72.02 16.23 71.76 16.16L71.76 16.16L71.76 16.16Q71.50 16.10 71.25 16.01L71.25 16.01L71.25 16.01Q71.01 15.92 70.83 15.81L70.83 15.81L70.83 15.81Q70.66 15.69 70.62 15.61L70.62 15.61L70.62 15.61Q70.60 15.43 70.60 15.25L70.60 15.25L70.60 15.25Q70.60 15.08 70.60 14.88L70.60 14.88L70.60 14.88Q70.60 14.01 70.66 13.12L70.66 13.12L70.66 13.12Q70.73 12.22 70.88 11.27L70.88 11.27L70.88 11.27Q70.69 11.26 70.36 11.23L70.36 11.23L70.36 11.23Q70.04 11.21 69.64 11.20L69.64 11.20L69.64 11.20Q69.24 11.19 68.79 11.16L68.79 11.16L68.79 11.16Q68.33 11.14 67.90 11.13L67.90 11.13L67.90 11.13Q67.56 11.76 67.27 12.38L67.27 12.38L67.27 12.38Q66.98 13.01 66.77 13.64L66.77 13.64L66.77 13.64Q66.53 14.31 66.38 14.98L66.38 14.98L66.38 14.98Q66.23 15.65 66.19 16.24ZM71.60 7.83L71.60 7.83L71.60 7.83Q71.65 7.63 71.73 7.29L71.73 7.29L71.73 7.29Q71.81 6.94 71.88 6.57L71.88 6.57L71.88 6.57Q71.53 6.69 71.10 7.03L71.10 7.03L71.10 7.03Q70.67 7.36 70.22 7.86L70.22 7.86L70.22 7.86Q69.76 8.36 69.29 8.98L69.29 8.98L69.29 8.98Q68.82 9.60 68.39 10.30L68.39 10.30L68.39 10.30Q69.57 10.21 71.06 10.18L71.06 10.18L71.06 10.18Q71.18 9.59 71.31 9.01L71.31 9.01L71.31 9.01Q71.44 8.43 71.60 7.83ZM86.76 14.38L86.76 14.38L86.76 14.38Q87.11 14.98 87.11 15.54L87.11 15.54L87.11 15.54Q87.11 15.67 87.09 15.77L87.09 15.77L87.09 15.77Q87.07 15.88 87.04 15.99L87.04 15.99L87.04 15.99Q86.80 15.96 86.54 15.95L86.54 15.95L86.54 15.95Q86.28 15.93 86.00 15.93L86.00 15.93L86.00 15.93Q85.67 15.93 85.32 15.95L85.32 15.95L85.32 15.95Q84.98 15.97 84.56 16.02L84.56 16.02L84.56 16.02Q84.14 16.06 83.62 16.13L83.62 16.13L83.62 16.13Q83.10 16.20 82.42 16.31L82.42 16.31L82.42 16.31Q82.10 16.20 81.77 15.87L81.77 15.87L81.77 15.87Q81.45 15.54 81.17 15.08L81.17 15.08L81.17 15.08Q81.31 14.77 81.52 14.31L81.52 14.31L81.52 14.31Q81.73 13.86 82.01 13.21L82.01 13.21L82.01 13.21Q82.29 12.56 82.63 11.68L82.63 11.68L82.63 11.68Q82.98 10.81 83.37 9.66L83.37 9.66L83.37 9.66Q83.62 8.90 83.80 8.33L83.80 8.33L83.80 8.33Q83.99 7.76 84.13 7.22L84.13 7.22L84.13 7.22Q84.28 6.68 84.42 6.09L84.42 6.09L84.42 6.09Q84.56 5.50 84.73 4.73L84.73 4.73L84.73 4.73Q85.29 4.84 85.70 5.14L85.70 5.14L85.70 5.14Q86.11 5.45 86.49 6.01L86.49 6.01L86.49 6.01Q86.38 6.19 86.20 6.59L86.20 6.59L86.20 6.59Q86.02 7 85.77 7.58L85.77 7.58L85.77 7.58Q85.53 8.16 85.23 8.90L85.23 8.90L85.23 8.90Q84.94 9.63 84.62 10.47L84.62 10.47L84.62 10.47Q84.31 11.30 84.01 12.03L84.01 12.03L84.01 12.03Q83.72 12.75 83.49 13.34L83.49 13.34L83.49 13.34Q83.26 13.93 83.12 14.35L83.12 14.35L83.12 14.35Q82.98 14.77 82.98 14.98L82.98 14.98L82.98 14.98Q83.20 14.97 83.38 14.95L83.38 14.95L83.38 14.95Q83.57 14.94 83.76 14.90L83.76 14.90L83.76 14.90Q83.96 14.87 84.19 14.82L84.19 14.82L84.19 14.82Q84.42 14.77 84.74 14.69L84.74 14.69L84.74 14.69Q85.02 14.62 85.26 14.57L85.26 14.57L85.26 14.57Q85.50 14.52 85.73 14.48L85.73 14.48L85.73 14.48Q85.96 14.45 86.20 14.43L86.20 14.43L86.20 14.43Q86.45 14.41 86.76 14.38ZM111.34 14.36L111.34 14.36L111.34 14.36Q111.34 13.78 111.54 12.85L111.54 12.85L111.54 12.85Q111.73 11.93 112.06 10.88L112.06 10.88L112.06 10.88Q111.13 10.95 110.20 11.06L110.20 11.06L110.20 11.06Q109.27 11.17 108.58 11.19L108.58 11.19L108.58 11.19Q107.95 12.66 107.58 13.89L107.58 13.89L107.58 13.89Q107.21 15.13 107.00 16.31L107.00 16.31L107.00 16.31Q106.47 16.18 106.12 15.87L106.12 15.87L106.12 15.87Q105.77 15.55 105.48 15.08L105.48 15.08L105.48 15.08Q105.59 14.85 105.73 14.50L105.73 14.50L105.73 14.50Q105.88 14.15 106.08 13.66L106.08 13.66L106.08 13.66Q106.29 13.16 106.55 12.50L106.55 12.50L106.55 12.50Q106.81 11.83 107.14 10.95L107.14 10.95L107.14 10.95Q106.68 10.75 106.53 10.40L106.53 10.40L106.53 10.40Q106.60 10.35 106.84 10.28L106.84 10.28L106.84 10.28Q107.09 10.22 107.45 10.15L107.45 10.15L107.63 9.70L107.63 9.70Q107.93 8.95 108.11 8.43L108.11 8.43L108.11 8.43Q108.30 7.91 108.44 7.41L108.44 7.41L108.44 7.41Q108.57 6.92 108.69 6.31L108.69 6.31L108.69 6.31Q108.81 5.71 108.98 4.79L108.98 4.79L108.98 4.79Q109.56 4.90 110.05 5.31L110.05 5.31L110.05 5.31Q110.53 5.71 110.88 6.29L110.88 6.29L110.88 6.29Q110.75 6.45 110.57 6.79L110.57 6.79L110.57 6.79Q110.39 7.13 110.17 7.59L110.17 7.59L110.17 7.59Q109.96 8.06 109.70 8.64L109.70 8.64L109.70 8.64Q109.45 9.23 109.16 9.87L109.16 9.87L109.16 9.87Q110.03 9.76 110.91 9.66L110.91 9.66L110.91 9.66Q111.80 9.56 112.49 9.52L112.49 9.52L112.49 9.52Q112.74 8.79 113.01 8.10L113.01 8.10L113.01 8.10Q113.29 7.41 113.55 6.83L113.55 6.83L113.55 6.83Q113.82 6.26 114.06 5.82L114.06 5.82L114.06 5.82Q114.31 5.39 114.51 5.18L114.51 5.18L114.51 5.18Q114.65 5.19 114.88 5.29L114.88 5.29L114.88 5.29Q115.11 5.38 115.35 5.50L115.35 5.50L115.35 5.50Q115.58 5.63 115.78 5.78L115.78 5.78L115.78 5.78Q115.98 5.92 116.05 6.05L116.05 6.05L116.05 6.05Q115.79 6.29 115.54 6.66L115.54 6.66L115.54 6.66Q115.29 7.04 115.04 7.53L115.04 7.53L115.04 7.53Q114.80 8.02 114.56 8.60L114.56 8.60L114.56 8.60Q114.32 9.17 114.11 9.79L114.11 9.79L114.11 9.79Q114.39 10.04 114.39 10.42L114.39 10.42L114.39 10.42Q114.39 10.68 114.28 10.91L114.28 10.91L114.28 10.91Q114.16 10.88 114.03 10.87L114.03 10.87L114.03 10.87Q113.90 10.86 113.76 10.85L113.76 10.85L113.76 10.85Q113.53 11.61 113.33 12.35L113.33 12.35L113.33 12.35Q113.13 13.09 113.00 13.76L113.00 13.76L113.00 13.76Q112.87 14.43 112.79 14.99L112.79 14.99L112.79 14.99Q112.71 15.55 112.71 15.93L112.71 15.93L112.71 15.93Q112.71 16.07 112.72 16.16L112.72 16.16L112.72 16.16Q112.73 16.24 112.74 16.30L112.74 16.30L112.74 16.30Q112.43 16.28 112.29 16.19L112.29 16.19L112.29 16.19Q112.15 16.10 112.08 16.00L112.08 16.00L112.08 16.00Q112.01 15.89 111.96 15.79L111.96 15.79L111.96 15.79Q111.90 15.68 111.78 15.62L111.78 15.62L111.78 15.62Q111.68 15.58 111.59 15.43L111.59 15.43L111.59 15.43Q111.51 15.27 111.45 15.08L111.45 15.08L111.45 15.08Q111.40 14.88 111.37 14.69L111.37 14.69L111.37 14.69Q111.34 14.49 111.34 14.36ZM127.71 5.75L127.71 5.75L127.71 5.75Q127.09 6.58 126.59 7.57L126.59 7.57L126.59 7.57Q126.08 8.57 125.73 9.61L125.73 9.61L125.73 9.61Q125.37 10.65 125.18 11.67L125.18 11.67L125.18 11.67Q124.99 12.68 124.99 13.57L124.99 13.57L124.99 13.57Q124.99 14.66 125.31 15.15L125.31 15.15L125.31 15.15Q125.64 15.64 126.42 15.64L126.42 15.64L126.42 15.64Q127.33 15.64 128.02 15.00L128.02 15.00L128.02 15.00Q128.70 14.36 129.30 13.24L129.30 13.24L129.30 13.24Q129.70 12.52 129.98 11.65L129.98 11.65L129.98 11.65Q130.26 10.78 130.43 9.86L130.43 9.86L130.43 9.86Q130.61 8.95 130.69 8.02L130.69 8.02L130.69 8.02Q130.77 7.08 130.77 6.23L130.77 6.23L130.77 6.23Q130.77 5.68 130.76 5.43L130.76 5.43L130.76 5.43Q130.75 5.18 130.72 5.03L130.72 5.03L130.72 5.03Q130.76 5.03 130.93 5.05L130.93 5.05L130.93 5.05Q131.10 5.08 131.31 5.12L131.31 5.12L131.31 5.12Q131.53 5.17 131.75 5.24L131.75 5.24L131.75 5.24Q131.96 5.31 132.12 5.39L132.12 5.39L132.12 5.39Q132.05 6.45 131.86 7.59L131.86 7.59L131.86 7.59Q131.67 8.72 131.36 9.83L131.36 9.83L131.36 9.83Q131.05 10.93 130.65 11.96L130.65 11.96L130.65 11.96Q130.24 12.98 129.74 13.79L129.74 13.79L129.74 13.79Q129.00 14.99 128.07 15.67L128.07 15.67L128.07 15.67Q127.15 16.35 125.89 16.35L125.89 16.35L125.89 16.35Q124.60 16.35 123.89 15.60L123.89 15.60L123.89 15.60Q123.17 14.85 123.17 13.33L123.17 13.33L123.17 13.33Q123.17 12.45 123.37 11.33L123.37 11.33L123.37 11.33Q123.56 10.22 123.89 9.07L123.89 9.07L123.89 9.07Q124.22 7.91 124.66 6.81L124.66 6.81L124.66 6.81Q125.09 5.71 125.57 4.84L125.57 4.84L125.57 4.84Q125.80 4.86 126.13 4.94L126.13 4.94L126.13 4.94Q126.45 5.03 126.76 5.16L126.76 5.16L126.76 5.16Q127.06 5.29 127.32 5.45L127.32 5.45L127.32 5.45Q127.58 5.61 127.71 5.75ZM145.54 4.98L145.54 4.98L145.54 4.98Q145.81 5.10 146.09 5.27L146.09 5.27L146.09 5.27Q146.37 5.45 146.61 5.63L146.61 5.63L146.61 5.63Q146.85 5.81 147.01 5.98L147.01 5.98L147.01 5.98Q147.17 6.16 147.18 6.27L147.18 6.27L147.18 6.27Q146.94 6.22 146.71 6.20L146.71 6.20L146.71 6.20Q146.47 6.17 146.27 6.17L146.27 6.17L146.27 6.17Q145.64 6.17 145.02 6.48L145.02 6.48L145.02 6.48Q144.40 6.79 143.84 7.32L143.84 7.32L143.84 7.32Q143.28 7.85 142.80 8.57L142.80 8.57L142.80 8.57Q142.32 9.28 141.98 10.09L141.98 10.09L141.98 10.09Q141.64 10.91 141.44 11.77L141.44 11.77L141.44 11.77Q141.25 12.64 141.25 13.48L141.25 13.48L141.25 13.48Q141.25 14.57 141.61 15.11L141.61 15.11L141.61 15.11Q141.97 15.64 142.67 15.64L142.67 15.64L142.67 15.64Q143.01 15.64 143.40 15.51L143.40 15.51L143.40 15.51Q143.79 15.37 144.20 15.13L144.20 15.13L144.20 15.13Q144.61 14.90 145.00 14.56L145.00 14.56L145.00 14.56Q145.39 14.22 145.73 13.82L145.73 13.82L145.73 13.82Q146.22 13.23 146.61 12.48L146.61 12.48L146.61 12.48Q147 11.73 147.27 10.89L147.27 10.89L147.27 10.89Q147.55 10.05 147.69 9.16L147.69 9.16L147.69 9.16Q147.84 8.27 147.84 7.42L147.84 7.42L147.84 7.42Q147.84 7.08 147.83 6.85L147.83 6.85L147.83 6.85Q147.81 6.62 147.79 6.46L147.79 6.46L147.79 6.46Q147.77 6.30 147.76 6.20L147.76 6.20L147.76 6.20Q147.74 6.10 147.73 6.03L147.73 6.03L147.73 6.03Q147.90 6.12 148.10 6.24L148.10 6.24L148.10 6.24Q148.30 6.36 148.48 6.59L148.48 6.59L148.48 6.59Q148.65 6.82 148.77 7.20L148.77 7.20L148.77 7.20Q148.89 7.57 148.89 8.18L148.89 8.18L148.89 8.18Q148.89 9.16 148.66 10.10L148.66 10.10L148.66 10.10Q148.43 11.05 148.01 11.90L148.01 11.90L148.01 11.90Q147.60 12.75 147.04 13.50L147.04 13.50L147.04 13.50Q146.48 14.24 145.84 14.80L145.84 14.80L145.84 14.80Q145.00 15.54 144.05 15.95L144.05 15.95L144.05 15.95Q143.09 16.35 142.21 16.35L142.21 16.35L142.21 16.35Q140.92 16.35 140.24 15.53L140.24 15.53L140.24 15.53Q139.57 14.71 139.57 13.12L139.57 13.12L139.57 13.12Q139.57 12.26 139.75 11.31L139.75 11.31L139.75 11.31Q139.94 10.36 140.29 9.44L140.29 9.44L140.29 9.44Q140.63 8.51 141.11 7.68L141.11 7.68L141.11 7.68Q141.58 6.85 142.15 6.21L142.15 6.21L142.15 6.21Q142.72 5.57 143.37 5.19L143.37 5.19L143.37 5.19Q144.02 4.82 144.70 4.82L144.70 4.82L144.70 4.82Q144.93 4.82 145.12 4.85L145.12 4.85L145.12 4.85Q145.32 4.89 145.54 4.98ZM165.34 5.74L165.34 5.74L165.34 5.74Q165.38 5.98 165.40 6.07L165.40 6.07L165.40 6.07Q165.42 6.16 165.42 6.31L165.42 6.31L165.42 6.31Q165.42 6.78 165.22 7.18L165.22 7.18L165.22 7.18Q165.02 7.57 164.67 7.74L164.67 7.74L164.67 7.74Q164.39 7.36 163.98 7.09L163.98 7.09L163.98 7.09Q163.58 6.82 163.09 6.64L163.09 6.64L163.09 6.64Q162.61 6.47 162.09 6.38L162.09 6.38L162.09 6.38Q161.57 6.30 161.08 6.30L161.08 6.30L161.08 6.30Q160.59 6.30 160.17 6.38L160.17 6.38L160.17 6.38Q159.74 6.45 159.41 6.59L159.41 6.59L159.41 6.59Q159.08 6.72 158.89 6.92L158.89 6.92L158.89 6.92Q158.70 7.11 158.70 7.36L158.70 7.36L158.70 7.36Q158.75 7.67 159.08 7.99L159.08 7.99L159.08 7.99Q159.42 8.30 159.91 8.60L159.91 8.60L159.91 8.60Q160.40 8.90 160.99 9.20L160.99 9.20L160.99 9.20Q161.59 9.49 162.16 9.76L162.16 9.76L162.16 9.76Q162.88 10.09 163.39 10.38L163.39 10.38L163.39 10.38Q163.91 10.67 164.25 11.01L164.25 11.01L164.25 11.01Q164.58 11.35 164.75 11.79L164.75 11.79L164.75 11.79Q164.92 12.22 164.92 12.84L164.92 12.84L164.92 12.84Q164.92 13.55 164.68 14.18L164.68 14.18L164.68 14.18Q164.44 14.80 163.99 15.26L163.99 15.26L163.99 15.26Q163.53 15.72 162.89 15.98L162.89 15.98L162.89 15.98Q162.25 16.24 161.45 16.24L161.45 16.24L161.45 16.24Q160.66 16.24 159.75 16.00L159.75 16.00L159.75 16.00Q158.84 15.76 158.05 15.35L158.05 15.35L158.05 15.35Q157.26 14.94 156.74 14.40L156.74 14.40L156.74 14.40Q156.21 13.86 156.21 13.26L156.21 13.26L156.21 13.26Q156.21 12.98 156.37 12.54L156.37 12.54L156.37 12.54Q156.53 12.11 156.95 11.63L156.95 11.63L156.95 11.63Q157.00 12.05 157.41 12.63L157.41 12.63L157.41 12.63Q157.82 13.20 158.65 13.69L158.65 13.69L158.65 13.69Q159.42 14.14 160.24 14.34L160.24 14.34L160.24 14.34Q161.06 14.55 161.77 14.55L161.77 14.55L161.77 14.55Q162.55 14.55 163.04 14.35L163.04 14.35L163.04 14.35Q163.53 14.15 163.81 13.88L163.81 13.88L163.81 13.88Q164.09 13.61 164.21 13.33L164.21 13.33L164.21 13.33Q164.32 13.05 164.33 12.88L164.33 12.88L164.33 12.88Q164.32 12.60 164.07 12.34L164.07 12.34L164.07 12.34Q163.83 12.08 163.41 11.84L163.41 11.84L163.41 11.84Q163.00 11.59 162.46 11.34L162.46 11.34L162.46 11.34Q161.91 11.09 161.32 10.84L161.32 10.84L161.32 10.84Q160.44 10.44 159.80 10.10L159.80 10.10L159.80 10.10Q159.17 9.76 158.75 9.40L158.75 9.40L158.75 9.40Q158.34 9.04 158.15 8.65L158.15 8.65L158.15 8.65Q157.96 8.26 157.96 7.76L157.96 7.76L157.96 7.76Q157.96 6.97 158.44 6.27L158.44 6.27L158.44 6.27Q158.91 5.57 159.81 5.21L159.81 5.21L159.81 5.21Q160.26 5.01 160.77 4.93L160.77 4.93L160.77 4.93Q161.28 4.84 161.77 4.84L161.77 4.84L161.77 4.84Q162.69 4.84 163.58 5.10L163.58 5.10L163.58 5.10Q164.46 5.35 165.34 5.74ZM178.82 9.21L178.82 9.21L178.82 9.21Q179.28 9.21 179.54 9.46L179.54 9.46L179.54 9.46Q179.80 9.72 179.80 10.16L179.80 10.16L179.80 10.16Q179.80 10.28 179.78 10.39L179.78 10.39L179.78 10.39Q179.76 10.51 179.73 10.60L179.73 10.60L179.73 10.60Q179.55 10.57 179.33 10.55L179.33 10.55L179.33 10.55Q179.10 10.53 178.79 10.53L178.79 10.53L178.79 10.53Q178.19 10.53 177.58 10.63L177.58 10.63L177.58 10.63Q176.96 10.74 176.40 10.81L176.40 10.81L176.40 10.81Q176.08 11.55 175.81 12.24L175.81 12.24L175.81 12.24Q175.55 12.94 175.36 13.51L175.36 13.51L175.36 13.51Q175.17 14.08 175.06 14.50L175.06 14.50L175.06 14.50Q174.96 14.92 174.94 15.13L174.94 15.13L174.94 15.13Q176.08 14.90 177.23 14.73L177.23 14.73L177.23 14.73Q178.39 14.56 179.66 14.48L179.66 14.48L179.66 14.48Q179.82 14.71 179.92 14.99L179.92 14.99L179.92 14.99Q180.03 15.27 180.03 15.60L180.03 15.60L180.03 15.60Q180.03 15.68 180.03 15.78L180.03 15.78L180.03 15.78Q180.03 15.88 180.00 15.97L180.00 15.97L180.00 15.97Q179.61 15.96 179.17 15.95L179.17 15.95L179.17 15.95Q178.74 15.95 178.04 15.95L178.04 15.95L178.04 15.95Q177.58 15.95 177.16 15.97L177.16 15.97L177.16 15.97Q176.75 15.99 176.33 16.03L176.33 16.03L176.33 16.03Q175.91 16.07 175.44 16.14L175.44 16.14L175.44 16.14Q174.97 16.21 174.38 16.31L174.38 16.31L174.38 16.31Q173.74 16.06 173.14 15.08L173.14 15.08L173.14 15.08Q173.38 14.57 173.80 13.54L173.80 13.54L173.80 13.54Q174.23 12.52 174.89 10.79L174.89 10.79L174.89 10.79Q174.26 10.60 174.06 10.09L174.06 10.09L174.06 10.09Q174.13 10.02 174.47 9.92L174.47 9.92L174.47 9.92Q174.80 9.81 175.29 9.70L175.29 9.70L175.29 9.70Q175.50 9.16 175.65 8.75L175.65 8.75L175.65 8.75Q175.80 8.34 175.91 7.99L175.91 7.99L175.91 7.99Q176.02 7.63 176.11 7.29L176.11 7.29L176.11 7.29Q176.20 6.94 176.29 6.54L176.29 6.54L176.29 6.54Q175.80 6.51 175.52 6.27L175.52 6.27L175.52 6.27Q175.24 6.02 175.24 5.63L175.24 5.63L175.24 5.63Q175.24 5.52 175.27 5.36L175.27 5.36L175.27 5.36Q175.31 5.21 175.35 5.10L175.35 5.10L175.35 5.10Q175.63 5.14 175.89 5.15L175.89 5.15L175.89 5.15Q176.15 5.17 176.57 5.17L176.57 5.17L176.57 5.17Q177.45 5.17 178.22 5.12L178.22 5.12L178.22 5.12Q178.99 5.07 179.61 5.01L179.61 5.01L179.61 5.01Q180.24 4.96 180.68 4.91L180.68 4.91L180.68 4.91Q181.13 4.86 181.37 4.86L181.37 4.86L181.37 4.86Q181.69 4.86 181.94 5.19L181.94 5.19L181.94 5.19Q182.20 5.53 182.32 6.15L182.32 6.15L182.32 6.15Q181.89 6.10 181.62 6.09L181.62 6.09L181.62 6.09Q181.34 6.08 181.13 6.08L181.13 6.08L181.13 6.08Q180.36 6.08 179.72 6.15L179.72 6.15L179.72 6.15Q179.09 6.23 178.50 6.31L178.50 6.31L178.50 6.31Q178.42 6.44 178.31 6.64L178.31 6.64L178.31 6.64Q178.21 6.83 178.04 7.18L178.04 7.18L178.04 7.18Q177.87 7.53 177.63 8.06L177.63 8.06L177.63 8.06Q177.38 8.60 177.03 9.39L177.03 9.39L177.03 9.39Q177.56 9.31 178.03 9.26L178.03 9.26L178.03 9.26Q178.50 9.21 178.82 9.21ZM197.69 5.74L197.69 5.74L197.69 5.74Q197.74 5.98 197.76 6.07L197.76 6.07L197.76 6.07Q197.78 6.16 197.78 6.31L197.78 6.31L197.78 6.31Q197.78 6.78 197.58 7.18L197.58 7.18L197.58 7.18Q197.37 7.57 197.02 7.74L197.02 7.74L197.02 7.74Q196.74 7.36 196.34 7.09L196.34 7.09L196.34 7.09Q195.93 6.82 195.45 6.64L195.45 6.64L195.45 6.64Q194.96 6.47 194.45 6.38L194.45 6.38L194.45 6.38Q193.93 6.30 193.44 6.30L193.44 6.30L193.44 6.30Q192.95 6.30 192.52 6.38L192.52 6.38L192.52 6.38Q192.09 6.45 191.77 6.59L191.77 6.59L191.77 6.59Q191.44 6.72 191.25 6.92L191.25 6.92L191.25 6.92Q191.06 7.11 191.06 7.36L191.06 7.36L191.06 7.36Q191.10 7.67 191.44 7.99L191.44 7.99L191.44 7.99Q191.77 8.30 192.26 8.60L192.26 8.60L192.26 8.60Q192.75 8.90 193.35 9.20L193.35 9.20L193.35 9.20Q193.94 9.49 194.52 9.76L194.52 9.76L194.52 9.76Q195.23 10.09 195.75 10.38L195.75 10.38L195.75 10.38Q196.27 10.67 196.60 11.01L196.60 11.01L196.60 11.01Q196.94 11.35 197.11 11.79L197.11 11.79L197.11 11.79Q197.27 12.22 197.27 12.84L197.27 12.84L197.27 12.84Q197.27 13.55 197.04 14.18L197.04 14.18L197.04 14.18Q196.80 14.80 196.34 15.26L196.34 15.26L196.34 15.26Q195.89 15.72 195.24 15.98L195.24 15.98L195.24 15.98Q194.60 16.24 193.80 16.24L193.80 16.24L193.80 16.24Q193.02 16.24 192.11 16.00L192.11 16.00L192.11 16.00Q191.20 15.76 190.41 15.35L190.41 15.35L190.41 15.35Q189.62 14.94 189.09 14.40L189.09 14.40L189.09 14.40Q188.57 13.86 188.57 13.26L188.57 13.26L188.57 13.26Q188.57 12.98 188.73 12.54L188.73 12.54L188.73 12.54Q188.89 12.11 189.31 11.63L189.31 11.63L189.31 11.63Q189.35 12.05 189.76 12.63L189.76 12.63L189.76 12.63Q190.18 13.20 191.00 13.69L191.00 13.69L191.00 13.69Q191.77 14.14 192.59 14.34L192.59 14.34L192.59 14.34Q193.41 14.55 194.12 14.55L194.12 14.55L194.12 14.55Q194.91 14.55 195.40 14.35L195.40 14.35L195.40 14.35Q195.89 14.15 196.17 13.88L196.17 13.88L196.17 13.88Q196.45 13.61 196.56 13.33L196.56 13.33L196.56 13.33Q196.67 13.05 196.69 12.88L196.69 12.88L196.69 12.88Q196.67 12.60 196.43 12.34L196.43 12.34L196.43 12.34Q196.18 12.08 195.77 11.84L195.77 11.84L195.77 11.84Q195.36 11.59 194.81 11.34L194.81 11.34L194.81 11.34Q194.26 11.09 193.68 10.84L193.68 10.84L193.68 10.84Q192.79 10.44 192.16 10.10L192.16 10.10L192.16 10.10Q191.52 9.76 191.11 9.40L191.11 9.40L191.11 9.40Q190.69 9.04 190.51 8.65L190.51 8.65L190.51 8.65Q190.32 8.26 190.32 7.76L190.32 7.76L190.32 7.76Q190.32 6.97 190.79 6.27L190.79 6.27L190.79 6.27Q191.27 5.57 192.16 5.21L192.16 5.21L192.16 5.21Q192.61 5.01 193.12 4.93L193.12 4.93L193.12 4.93Q193.63 4.84 194.12 4.84L194.12 4.84L194.12 4.84Q195.05 4.84 195.93 5.10L195.93 5.10L195.93 5.10Q196.81 5.35 197.69 5.74ZM216.97 16.24L216.97 16.24L216.97 16.24Q216.17 16.00 215.89 15.79L215.89 15.79L215.89 15.79Q215.61 15.57 215.61 15.19L215.61 15.19L215.61 15.19Q215.61 14.77 215.81 14.01L215.81 14.01L215.81 14.01Q216.01 13.24 216.32 12.31L216.32 12.31L216.32 12.31Q216.64 11.37 217.04 10.35L217.04 10.35L217.04 10.35Q217.45 9.32 217.87 8.39L217.87 8.39L217.87 8.39Q218.29 7.45 218.69 6.67L218.69 6.67L218.69 6.67Q219.09 5.89 219.39 5.46L219.39 5.46L219.30 4.87L219.30 4.87Q219.49 4.87 219.84 4.97L219.84 4.97L219.84 4.97Q220.19 5.07 220.55 5.21L220.55 5.21L220.55 5.21Q220.91 5.35 221.18 5.49L221.18 5.49L221.18 5.49Q221.45 5.64 221.48 5.74L221.48 5.74L221.48 5.74Q221.41 6.08 221.37 6.76L221.37 6.76L221.37 6.76Q221.33 7.43 221.33 8.20L221.33 8.20L221.33 8.20Q221.33 9.73 221.45 11.19L221.45 11.19L221.45 11.19Q221.56 12.66 222.00 14.17L222.00 14.17L222.00 14.17Q222.22 13.05 222.48 11.94L222.48 11.94L222.48 11.94Q222.74 10.82 223.02 9.81L223.02 9.81L223.02 9.81Q223.30 8.79 223.58 7.92L223.58 7.92L223.58 7.92Q223.86 7.06 224.12 6.40L224.12 6.40L224.12 6.40Q224.38 5.75 224.60 5.38L224.60 5.38L224.60 5.38Q224.83 5.01 225.01 4.98L225.01 4.98L225.01 4.98Q225.16 5.01 225.34 5.10L225.34 5.10L225.34 5.10Q225.53 5.19 225.69 5.32L225.69 5.32L225.69 5.32Q225.86 5.45 226.00 5.60L226.00 5.60L226.00 5.60Q226.14 5.75 226.23 5.91L226.23 5.91L226.23 5.91Q225.78 6.09 225.34 6.76L225.34 6.76L225.34 6.76Q224.90 7.43 224.50 8.39L224.50 8.39L224.50 8.39Q224.10 9.35 223.76 10.47L223.76 10.47L223.76 10.47Q223.41 11.59 223.15 12.68L223.15 12.68L223.15 12.68Q222.89 13.76 222.75 14.69L222.75 14.69L222.75 14.69Q222.60 15.61 222.59 16.17L222.59 16.17L222.59 16.17Q222.59 16.20 222.60 16.21L222.60 16.21L222.60 16.21Q222.56 16.23 222.51 16.23L222.51 16.23L222.51 16.23Q222.46 16.23 222.42 16.23L222.42 16.23L222.42 16.23Q221.77 16.23 221.28 16.07L221.28 16.07L221.28 16.07Q220.78 15.90 220.63 15.61L220.63 15.61L220.63 15.61Q220.33 14.43 220.14 13.34L220.14 13.34L220.14 13.34Q219.94 12.25 219.81 11.16L219.81 11.16L219.81 11.16Q219.67 10.07 219.60 8.95L219.60 8.95L219.60 8.95Q219.52 7.84 219.48 6.62L219.48 6.62L219.48 6.62Q219.21 7.04 218.92 7.72L218.92 7.72L218.92 7.72Q218.62 8.40 218.34 9.21L218.34 9.21L218.34 9.21Q218.06 10.02 217.81 10.92L217.81 10.92L217.81 10.92Q217.55 11.82 217.35 12.67L217.35 12.67L217.35 12.67Q217.15 13.52 217.04 14.29L217.04 14.29L217.04 14.29Q216.93 15.05 216.93 15.61L216.93 15.61L216.93 15.61Q216.93 15.90 216.94 16.03L216.94 16.03L216.94 16.03Q216.94 16.16 216.97 16.24ZM238.74 4.98L238.74 4.98L238.74 4.98Q239.01 5.10 239.29 5.27L239.29 5.27L239.29 5.27Q239.57 5.45 239.81 5.63L239.81 5.63L239.81 5.63Q240.04 5.81 240.21 5.98L240.21 5.98L240.21 5.98Q240.37 6.16 240.38 6.27L240.38 6.27L240.38 6.27Q240.14 6.22 239.90 6.20L239.90 6.20L239.90 6.20Q239.67 6.17 239.47 6.17L239.47 6.17L239.47 6.17Q238.84 6.17 238.22 6.48L238.22 6.48L238.22 6.48Q237.59 6.79 237.03 7.32L237.03 7.32L237.03 7.32Q236.47 7.85 236.00 8.57L236.00 8.57L236.00 8.57Q235.52 9.28 235.18 10.09L235.18 10.09L235.18 10.09Q234.84 10.91 234.64 11.77L234.64 11.77L234.64 11.77Q234.44 12.64 234.44 13.48L234.44 13.48L234.44 13.48Q234.44 14.57 234.81 15.11L234.81 15.11L234.81 15.11Q235.17 15.64 235.87 15.64L235.87 15.64L235.87 15.64Q236.21 15.64 236.60 15.51L236.60 15.51L236.60 15.51Q236.99 15.37 237.40 15.13L237.40 15.13L237.40 15.13Q237.80 14.90 238.20 14.56L238.20 14.56L238.20 14.56Q238.59 14.22 238.92 13.82L238.92 13.82L238.92 13.82Q239.41 13.23 239.81 12.48L239.81 12.48L239.81 12.48Q240.20 11.73 240.47 10.89L240.47 10.89L240.47 10.89Q240.74 10.05 240.89 9.16L240.89 9.16L240.89 9.16Q241.04 8.27 241.04 7.42L241.04 7.42L241.04 7.42Q241.04 7.08 241.02 6.85L241.02 6.85L241.02 6.85Q241.01 6.62 240.99 6.46L240.99 6.46L240.99 6.46Q240.97 6.30 240.95 6.20L240.95 6.20L240.95 6.20Q240.94 6.10 240.93 6.03L240.93 6.03L240.93 6.03Q241.09 6.12 241.30 6.24L241.30 6.24L241.30 6.24Q241.50 6.36 241.68 6.59L241.68 6.59L241.68 6.59Q241.85 6.82 241.97 7.20L241.97 7.20L241.97 7.20Q242.09 7.57 242.09 8.18L242.09 8.18L242.09 8.18Q242.09 9.16 241.86 10.10L241.86 10.10L241.86 10.10Q241.63 11.05 241.21 11.90L241.21 11.90L241.21 11.90Q240.80 12.75 240.24 13.50L240.24 13.50L240.24 13.50Q239.68 14.24 239.04 14.80L239.04 14.80L239.04 14.80Q238.20 15.54 237.24 15.95L237.24 15.95L237.24 15.95Q236.29 16.35 235.41 16.35L235.41 16.35L235.41 16.35Q234.12 16.35 233.44 15.53L233.44 15.53L233.44 15.53Q232.76 14.71 232.76 13.12L232.76 13.12L232.76 13.12Q232.76 12.26 232.95 11.31L232.95 11.31L232.95 11.31Q233.14 10.36 233.49 9.44L233.49 9.44L233.49 9.44Q233.83 8.51 234.30 7.68L234.30 7.68L234.30 7.68Q234.78 6.85 235.35 6.21L235.35 6.21L235.35 6.21Q235.91 5.57 236.57 5.19L236.57 5.19L236.57 5.19Q237.22 4.82 237.90 4.82L237.90 4.82L237.90 4.82Q238.13 4.82 238.32 4.85L238.32 4.85L238.32 4.85Q238.52 4.89 238.74 4.98ZM265.52 16.21L265.52 16.21L265.52 16.21Q265.50 16.23 265.47 16.23L265.47 16.23L265.47 16.23Q265.44 16.23 265.36 16.23L265.36 16.23L265.36 16.23Q265.16 16.23 264.90 16.16L264.90 16.16L264.90 16.16Q264.64 16.10 264.40 16.01L264.40 16.01L264.40 16.01Q264.15 15.92 263.98 15.81L263.98 15.81L263.98 15.81Q263.80 15.69 263.76 15.61L263.76 15.61L263.76 15.61Q263.75 15.41 263.75 15.20L263.75 15.20L263.75 15.20Q263.75 14.99 263.75 14.80L263.75 14.80L263.75 14.80Q263.75 13.23 263.98 11.52L263.98 11.52L263.98 11.52Q264.21 9.81 264.74 7.83L264.74 7.83L264.74 7.83Q264.80 7.63 264.86 7.33L264.86 7.33L264.86 7.33Q264.92 7.03 264.99 6.68L264.99 6.68L264.99 6.68Q264.66 6.94 264.19 7.53L264.19 7.53L264.19 7.53Q263.73 8.11 263.22 8.90L263.22 8.90L263.22 8.90Q262.71 9.69 262.20 10.63L262.20 10.63L262.20 10.63Q261.69 11.58 261.27 12.55L261.27 12.55L261.27 12.55Q260.85 13.52 260.55 14.48L260.55 14.48L260.55 14.48Q260.25 15.43 260.18 16.24L260.18 16.24L260.18 16.24Q259.50 16.04 259.25 15.85L259.25 15.85L259.25 15.85Q258.99 15.65 258.99 15.37L258.99 15.37L258.99 15.37Q258.99 15.12 259.14 14.66L259.14 14.66L259.14 14.66Q259.29 14.20 259.57 13.57L259.57 13.57L259.57 13.57Q259.85 12.94 260.26 12.16L260.26 12.16L260.26 12.16Q260.67 11.38 261.16 10.49L261.16 10.49L261.16 10.49Q261.72 9.46 262.26 8.57L262.26 8.57L262.26 8.57Q262.79 7.67 263.31 6.94L263.31 6.94L263.31 6.94Q263.83 6.22 264.33 5.68L264.33 5.68L264.33 5.68Q264.82 5.15 265.31 4.87L265.31 4.87L265.31 4.87Q265.51 4.87 265.84 4.97L265.84 4.97L265.84 4.97Q266.17 5.07 266.48 5.21L266.48 5.21L266.48 5.21Q266.80 5.35 267.04 5.49L267.04 5.49L267.04 5.49Q267.29 5.64 267.32 5.74L267.32 5.74L267.32 5.74Q267.12 6.13 266.85 6.92L266.85 6.92L266.85 6.92Q266.59 7.70 266.32 8.69L266.32 8.69L266.32 8.69Q266.04 9.69 265.80 10.80L265.80 10.80L265.80 10.80Q265.55 11.91 265.41 12.94L265.41 12.94L265.41 12.94Q265.73 12.17 266.16 11.33L266.16 11.33L266.16 11.33Q266.59 10.50 267.06 9.68L267.06 9.68L267.06 9.68Q267.54 8.86 268.04 8.09L268.04 8.09L268.04 8.09Q268.53 7.32 269.01 6.69L269.01 6.69L269.01 6.69Q269.49 6.05 269.90 5.57L269.90 5.57L269.90 5.57Q270.31 5.10 270.63 4.87L270.63 4.87L270.63 4.87Q270.83 4.87 271.16 4.97L271.16 4.97L271.16 4.97Q271.49 5.07 271.80 5.21L271.80 5.21L271.80 5.21Q272.12 5.35 272.36 5.49L272.36 5.49L272.36 5.49Q272.61 5.64 272.64 5.74L272.64 5.74L272.64 5.74Q272.19 6.54 271.85 7.69L271.85 7.69L271.85 7.69Q271.52 8.83 271.29 10.09L271.29 10.09L271.29 10.09Q271.05 11.35 270.94 12.59L270.94 12.59L270.94 12.59Q270.82 13.83 270.82 14.81L270.82 14.81L270.82 14.81Q270.82 15.13 270.82 15.48L270.82 15.48L270.82 15.48Q270.82 15.83 270.84 16.21L270.84 16.21L270.84 16.21Q270.65 16.21 270.38 16.16L270.38 16.16L270.38 16.16Q270.10 16.11 269.84 16.03L269.84 16.03L269.84 16.03Q269.58 15.95 269.37 15.84L269.37 15.84L269.37 15.84Q269.16 15.74 269.08 15.61L269.08 15.61L269.08 15.61Q269.07 15.41 269.07 15.20L269.07 15.20L269.07 15.20Q269.07 14.99 269.07 14.80L269.07 14.80L269.07 14.80Q269.07 13.23 269.30 11.52L269.30 11.52L269.30 11.52Q269.53 9.81 270.06 7.83L270.06 7.83L270.06 7.83Q270.12 7.63 270.19 7.29L270.19 7.29L270.19 7.29Q270.26 6.96 270.33 6.59L270.33 6.59L270.33 6.59Q269.93 6.79 269.44 7.34L269.44 7.34L269.44 7.34Q268.94 7.90 268.43 8.69L268.43 8.69L268.43 8.69Q267.92 9.48 267.42 10.44L267.42 10.44L267.42 10.44Q266.92 11.41 266.53 12.41L266.53 12.41L266.53 12.41Q266.13 13.41 265.85 14.40L265.85 14.40L265.85 14.40Q265.58 15.39 265.52 16.21ZM280.56 16.24L280.56 16.24L280.56 16.24Q279.89 16.04 279.63 15.85L279.63 15.85L279.63 15.85Q279.37 15.65 279.37 15.36L279.37 15.36L279.37 15.36Q279.37 15.13 279.50 14.73L279.50 14.73L279.50 14.73Q279.62 14.32 279.87 13.77L279.87 13.77L279.87 13.77Q280.11 13.22 280.46 12.54L280.46 12.54L280.46 12.54Q280.80 11.87 281.23 11.10L281.23 11.10L281.23 11.10Q280.87 11.09 280.58 11.08L280.58 11.08L280.58 11.08Q280.29 11.07 280.11 11.07L280.11 11.07L280.11 11.07Q280.20 10.86 280.59 10.71L280.59 10.71L280.59 10.71Q280.98 10.56 281.62 10.44L281.62 10.44L281.62 10.44Q282.17 9.53 282.79 8.71L282.79 8.71L282.79 8.71Q283.42 7.88 284.05 7.19L284.05 7.19L284.05 7.19Q284.68 6.50 285.31 5.97L285.31 5.97L285.31 5.97Q285.94 5.45 286.51 5.14L286.51 5.14L286.51 5.14Q286.52 5.04 286.53 4.97L286.53 4.97L286.53 4.97Q286.54 4.90 286.54 4.87L286.54 4.87L286.54 4.87Q286.73 4.87 287.06 4.97L287.06 4.97L287.06 4.97Q287.39 5.07 287.71 5.21L287.71 5.21L287.71 5.21Q288.02 5.35 288.27 5.49L288.27 5.49L288.27 5.49Q288.51 5.64 288.54 5.74L288.54 5.74L288.54 5.74Q288.08 6.55 287.63 8.17L287.63 8.17L287.63 8.17Q287.18 9.79 286.89 12.04L286.89 12.04L286.89 12.04Q286.82 12.60 286.77 13.31L286.77 13.31L286.77 13.31Q286.72 14.03 286.72 14.91L286.72 14.91L286.72 14.91Q286.72 15.22 286.72 15.54L286.72 15.54L286.72 15.54Q286.72 15.86 286.75 16.21L286.75 16.21L286.75 16.21Q286.72 16.23 286.69 16.23L286.69 16.23L286.69 16.23Q286.66 16.23 286.58 16.23L286.58 16.23L286.58 16.23Q286.38 16.23 286.13 16.16L286.13 16.16L286.13 16.16Q285.87 16.10 285.62 16.01L285.62 16.01L285.62 16.01Q285.38 15.92 285.20 15.81L285.20 15.81L285.20 15.81Q285.03 15.69 284.98 15.61L284.98 15.61L284.98 15.61Q284.97 15.43 284.97 15.25L284.97 15.25L284.97 15.25Q284.97 15.08 284.97 14.88L284.97 14.88L284.97 14.88Q284.97 14.01 285.03 13.12L285.03 13.12L285.03 13.12Q285.10 12.22 285.25 11.27L285.25 11.27L285.25 11.27Q285.05 11.26 284.73 11.23L284.73 11.23L284.73 11.23Q284.41 11.21 284.01 11.20L284.01 11.20L284.01 11.20Q283.61 11.19 283.16 11.16L283.16 11.16L283.16 11.16Q282.70 11.14 282.27 11.13L282.27 11.13L282.27 11.13Q281.93 11.76 281.64 12.38L281.64 12.38L281.64 12.38Q281.34 13.01 281.13 13.64L281.13 13.64L281.13 13.64Q280.90 14.31 280.75 14.98L280.75 14.98L280.75 14.98Q280.60 15.65 280.56 16.24ZM285.96 7.83L285.96 7.83L285.96 7.83Q286.02 7.63 286.10 7.29L286.10 7.29L286.10 7.29Q286.17 6.94 286.24 6.57L286.24 6.57L286.24 6.57Q285.89 6.69 285.47 7.03L285.47 7.03L285.47 7.03Q285.04 7.36 284.59 7.86L284.59 7.86L284.59 7.86Q284.13 8.36 283.66 8.98L283.66 8.98L283.66 8.98Q283.19 9.60 282.76 10.30L282.76 10.30L282.76 10.30Q283.93 10.21 285.43 10.18L285.43 10.18L285.43 10.18Q285.54 9.59 285.68 9.01L285.68 9.01L285.68 9.01Q285.81 8.43 285.96 7.83ZM298.12 6.69L298.12 6.69L298.12 6.69Q297.56 6.69 297.25 6.38L297.25 6.38L297.25 6.38Q296.95 6.06 296.95 5.61L296.95 5.61L296.95 5.61Q296.95 5.50 296.99 5.35L296.99 5.35L296.99 5.35Q297.02 5.19 297.08 5.08L297.08 5.08L297.08 5.08Q297.26 5.17 297.62 5.20L297.62 5.20L297.62 5.20Q297.98 5.24 298.45 5.24L298.45 5.24L298.45 5.24Q299.17 5.24 300.07 5.17L300.07 5.17L300.07 5.17Q300.97 5.11 301.80 5.04L301.80 5.04L301.80 5.04Q302.62 4.97 303.25 4.91L303.25 4.91L303.25 4.91Q303.88 4.84 304.07 4.84L304.07 4.84L304.07 4.84Q304.58 4.84 304.81 5.23L304.81 5.23L304.81 5.23Q305.05 5.61 305.16 6.26L305.16 6.26L305.16 6.26Q304.79 6.23 304.44 6.21L304.44 6.21L304.44 6.21Q304.08 6.19 303.83 6.19L303.83 6.19L303.83 6.19Q303.38 6.19 302.93 6.22L302.93 6.22L302.93 6.22Q302.47 6.24 302.01 6.30L302.01 6.30L302.01 6.30Q301.81 6.71 301.57 7.26L301.57 7.26L301.57 7.26Q301.34 7.81 301.11 8.41L301.11 8.41L301.11 8.41Q300.87 9.02 300.66 9.61L300.66 9.61L300.66 9.61Q300.45 10.21 300.30 10.68L300.30 10.68L300.30 10.68Q299.99 11.61 299.76 12.39L299.76 12.39L299.76 12.39Q299.53 13.17 299.36 13.85L299.36 13.85L299.36 13.85Q299.18 14.53 299.05 15.15L299.05 15.15L299.05 15.15Q298.93 15.76 298.83 16.35L298.83 16.35L298.83 16.35Q297.89 16.21 297.26 15.18L297.26 15.18L297.26 15.18Q297.37 14.74 297.54 14.23L297.54 14.23L297.54 14.23Q297.70 13.72 297.91 13.07L297.91 13.07L297.91 13.07Q298.13 12.42 298.42 11.59L298.42 11.59L298.42 11.59Q298.72 10.77 299.10 9.72L299.10 9.72L299.10 9.72Q299.24 9.32 299.39 8.90L299.39 8.90L299.39 8.90Q299.54 8.47 299.69 8.05L299.69 8.05L299.69 8.05Q299.84 7.63 299.96 7.24L299.96 7.24L299.96 7.24Q300.08 6.85 300.16 6.52L300.16 6.52L300.16 6.52Q299.57 6.59 299.05 6.64L299.05 6.64L299.05 6.64Q298.52 6.69 298.12 6.69ZM313.35 6.69L313.35 6.69L313.35 6.69Q312.79 6.69 312.49 6.38L312.49 6.38L312.49 6.38Q312.19 6.06 312.19 5.61L312.19 5.61L312.19 5.61Q312.19 5.50 312.22 5.35L312.22 5.35L312.22 5.35Q312.26 5.19 312.31 5.08L312.31 5.08L312.31 5.08Q312.49 5.17 312.85 5.20L312.85 5.20L312.85 5.20Q313.21 5.24 313.68 5.24L313.68 5.24L313.68 5.24Q314.40 5.24 315.30 5.17L315.30 5.17L315.30 5.17Q316.20 5.11 317.03 5.04L317.03 5.04L317.03 5.04Q317.86 4.97 318.49 4.91L318.49 4.91L318.49 4.91Q319.12 4.84 319.30 4.84L319.30 4.84L319.30 4.84Q319.82 4.84 320.05 5.23L320.05 5.23L320.05 5.23Q320.28 5.61 320.39 6.26L320.39 6.26L320.39 6.26Q320.03 6.23 319.67 6.21L319.67 6.21L319.67 6.21Q319.31 6.19 319.06 6.19L319.06 6.19L319.06 6.19Q318.61 6.19 318.16 6.22L318.16 6.22L318.16 6.22Q317.70 6.24 317.24 6.30L317.24 6.30L317.24 6.30Q317.04 6.71 316.81 7.26L316.81 7.26L316.81 7.26Q316.57 7.81 316.34 8.41L316.34 8.41L316.34 8.41Q316.11 9.02 315.90 9.61L315.90 9.61L315.90 9.61Q315.69 10.21 315.53 10.68L315.53 10.68L315.53 10.68Q315.22 11.61 314.99 12.39L314.99 12.39L314.99 12.39Q314.76 13.17 314.59 13.85L314.59 13.85L314.59 13.85Q314.41 14.53 314.29 15.15L314.29 15.15L314.29 15.15Q314.16 15.76 314.06 16.35L314.06 16.35L314.06 16.35Q313.12 16.21 312.49 15.18L312.49 15.18L312.49 15.18Q312.61 14.74 312.77 14.23L312.77 14.23L312.77 14.23Q312.93 13.72 313.15 13.07L313.15 13.07L313.15 13.07Q313.36 12.42 313.66 11.59L313.66 11.59L313.66 11.59Q313.95 10.77 314.33 9.72L314.33 9.72L314.33 9.72Q314.47 9.32 314.62 8.90L314.62 8.90L314.62 8.90Q314.78 8.47 314.92 8.05L314.92 8.05L314.92 8.05Q315.07 7.63 315.19 7.24L315.19 7.24L315.19 7.24Q315.31 6.85 315.39 6.52L315.39 6.52L315.39 6.52Q314.80 6.59 314.28 6.64L314.28 6.64L314.28 6.64Q313.75 6.69 313.35 6.69ZM331.59 9.21L331.59 9.21L331.59 9.21Q332.05 9.21 332.31 9.46L332.31 9.46L332.31 9.46Q332.57 9.72 332.57 10.16L332.57 10.16L332.57 10.16Q332.57 10.28 332.55 10.39L332.55 10.39L332.55 10.39Q332.53 10.51 332.50 10.60L332.50 10.60L332.50 10.60Q332.32 10.57 332.09 10.55L332.09 10.55L332.09 10.55Q331.87 10.53 331.56 10.53L331.56 10.53L331.56 10.53Q330.96 10.53 330.34 10.63L330.34 10.63L330.34 10.63Q329.73 10.74 329.17 10.81L329.17 10.81L329.17 10.81Q328.85 11.55 328.58 12.24L328.58 12.24L328.58 12.24Q328.31 12.94 328.13 13.51L328.13 13.51L328.13 13.51Q327.94 14.08 327.83 14.50L327.83 14.50L327.83 14.50Q327.73 14.92 327.71 15.13L327.71 15.13L327.71 15.13Q328.85 14.90 330.00 14.73L330.00 14.73L330.00 14.73Q331.16 14.56 332.43 14.48L332.43 14.48L332.43 14.48Q332.58 14.71 332.69 14.99L332.69 14.99L332.69 14.99Q332.79 15.27 332.79 15.60L332.79 15.60L332.79 15.60Q332.79 15.68 332.79 15.78L332.79 15.78L332.79 15.78Q332.79 15.88 332.77 15.97L332.77 15.97L332.77 15.97Q332.37 15.96 331.94 15.95L331.94 15.95L331.94 15.95Q331.51 15.95 330.81 15.95L330.81 15.95L330.81 15.95Q330.34 15.95 329.93 15.97L329.93 15.97L329.93 15.97Q329.52 15.99 329.10 16.03L329.10 16.03L329.10 16.03Q328.68 16.07 328.21 16.14L328.21 16.14L328.21 16.14Q327.74 16.21 327.15 16.31L327.15 16.31L327.15 16.31Q326.51 16.06 325.91 15.08L325.91 15.08L325.91 15.08Q326.14 14.57 326.57 13.54L326.57 13.54L326.57 13.54Q327.00 12.52 327.66 10.79L327.66 10.79L327.66 10.79Q327.03 10.60 326.83 10.09L326.83 10.09L326.83 10.09Q326.90 10.02 327.24 9.92L327.24 9.92L327.24 9.92Q327.57 9.81 328.06 9.70L328.06 9.70L328.06 9.70Q328.27 9.16 328.42 8.75L328.42 8.75L328.42 8.75Q328.57 8.34 328.68 7.99L328.68 7.99L328.68 7.99Q328.79 7.63 328.88 7.29L328.88 7.29L328.88 7.29Q328.97 6.94 329.06 6.54L329.06 6.54L329.06 6.54Q328.57 6.51 328.29 6.27L328.29 6.27L328.29 6.27Q328.01 6.02 328.01 5.63L328.01 5.63L328.01 5.63Q328.01 5.52 328.04 5.36L328.04 5.36L328.04 5.36Q328.08 5.21 328.12 5.10L328.12 5.10L328.12 5.10Q328.40 5.14 328.66 5.15L328.66 5.15L328.66 5.15Q328.92 5.17 329.34 5.17L329.34 5.17L329.34 5.17Q330.22 5.17 330.99 5.12L330.99 5.12L330.99 5.12Q331.76 5.07 332.38 5.01L332.38 5.01L332.38 5.01Q333.00 4.96 333.45 4.91L333.45 4.91L333.45 4.91Q333.90 4.86 334.14 4.86L334.14 4.86L334.14 4.86Q334.46 4.86 334.71 5.19L334.71 5.19L334.71 5.19Q334.96 5.53 335.09 6.15L335.09 6.15L335.09 6.15Q334.66 6.10 334.38 6.09L334.38 6.09L334.38 6.09Q334.11 6.08 333.90 6.08L333.90 6.08L333.90 6.08Q333.13 6.08 332.49 6.15L332.49 6.15L332.49 6.15Q331.86 6.23 331.27 6.31L331.27 6.31L331.27 6.31Q331.18 6.44 331.08 6.64L331.08 6.64L331.08 6.64Q330.97 6.83 330.81 7.18L330.81 7.18L330.81 7.18Q330.64 7.53 330.39 8.06L330.39 8.06L330.39 8.06Q330.15 8.60 329.80 9.39L329.80 9.39L329.80 9.39Q330.33 9.31 330.80 9.26L330.80 9.26L330.80 9.26Q331.27 9.21 331.59 9.21ZM350.85 7.46L350.85 7.46L350.85 7.46Q350.85 8.13 350.55 8.73L350.55 8.73L350.55 8.73Q350.25 9.32 349.72 9.79L349.72 9.79L349.72 9.79Q349.19 10.26 348.47 10.58L348.47 10.58L348.47 10.58Q347.76 10.91 346.92 11.02L346.92 11.02L346.92 11.02Q347.13 11.65 347.43 12.31L347.43 12.31L347.43 12.31Q347.73 12.98 348.08 13.59L348.08 13.59L348.08 13.59Q348.43 14.21 348.81 14.73L348.81 14.73L348.81 14.73Q349.19 15.25 349.55 15.58L349.55 15.58L349.55 15.58Q349.48 15.72 349.35 15.86L349.35 15.86L349.35 15.86Q349.22 16.00 349.04 16.12L349.04 16.12L349.04 16.12Q348.87 16.24 348.68 16.32L348.68 16.32L348.68 16.32Q348.49 16.39 348.32 16.39L348.32 16.39L348.32 16.39Q348.01 16.39 347.73 16.10L347.73 16.10L347.73 16.10Q347.45 15.81 347.17 15.17L347.17 15.17L347.17 15.17Q346.88 14.53 346.56 13.52L346.56 13.52L346.56 13.52Q346.25 12.50 345.87 11.07L345.87 11.07L345.87 11.07Q345.72 11.07 345.56 11.07L345.56 11.07L345.56 11.07Q345.41 11.07 345.32 11.05L345.32 11.05L345.32 11.05Q345.23 10.99 345.11 10.85L345.11 10.85L345.11 10.85Q344.74 11.66 344.44 12.38L344.44 12.38L344.44 12.38Q344.15 13.09 343.92 13.76L343.92 13.76L343.92 13.76Q343.69 14.42 343.51 15.04L343.51 15.04L343.51 15.04Q343.34 15.67 343.21 16.31L343.21 16.31L343.21 16.31Q342.73 16.20 342.38 15.90L342.38 15.90L342.38 15.90Q342.03 15.61 341.73 15.08L341.73 15.08L341.73 15.08Q341.78 14.95 341.85 14.83L341.85 14.83L341.85 14.83Q341.91 14.71 342.01 14.50L342.01 14.50L342.01 14.50Q342.10 14.28 342.25 13.94L342.25 13.94L342.25 13.94Q342.40 13.61 342.64 13.05L342.64 13.05L342.64 13.05Q342.89 12.49 343.23 11.68L343.23 11.68L343.23 11.68Q343.57 10.86 344.06 9.70L344.06 9.70L344.06 9.70Q344.29 9.18 344.45 8.79L344.45 8.79L344.45 8.79Q344.61 8.40 344.74 8.04L344.74 8.04L344.74 8.04Q344.86 7.69 344.97 7.33L344.97 7.33L344.97 7.33Q345.07 6.97 345.18 6.51L345.18 6.51L345.18 6.51Q344.54 6.73 343.99 7.01L343.99 7.01L343.99 7.01Q343.43 7.28 343.07 7.59L343.07 7.59L343.07 7.59Q342.94 7.50 342.81 7.34L342.81 7.34L342.81 7.34Q342.68 7.17 342.57 6.96L342.57 6.96L342.57 6.96Q342.45 6.76 342.37 6.55L342.37 6.55L342.37 6.55Q342.29 6.34 342.27 6.17L342.27 6.17L342.27 6.17Q342.69 5.89 343.30 5.66L343.30 5.66L343.30 5.66Q343.91 5.42 344.60 5.24L344.60 5.24L344.60 5.24Q345.28 5.07 346.00 4.97L346.00 4.97L346.00 4.97Q346.71 4.87 347.33 4.87L347.33 4.87L347.33 4.87Q349.01 4.87 349.93 5.56L349.93 5.56L349.93 5.56Q350.85 6.26 350.85 7.46ZM347.27 6.02L347.44 6.29L347.44 6.29Q347.34 6.41 347.13 6.79L347.13 6.79L347.13 6.79Q346.92 7.17 346.65 7.69L346.65 7.69L346.65 7.69Q346.37 8.22 346.07 8.83L346.07 8.83L346.07 8.83Q345.77 9.45 345.49 10.05L345.49 10.05L345.49 10.05Q346.54 10.05 347.42 9.86L347.42 9.86L347.42 9.86Q348.31 9.66 348.95 9.30L348.95 9.30L348.95 9.30Q349.59 8.95 349.95 8.46L349.95 8.46L349.95 8.46Q350.31 7.98 350.31 7.39L350.31 7.39L350.31 7.39Q350.31 6.69 349.80 6.32L349.80 6.32L349.80 6.32Q349.30 5.95 348.25 5.95L348.25 5.95L348.25 5.95Q348.01 5.95 347.77 5.97L347.77 5.97L347.77 5.97Q347.54 5.99 347.27 6.02L347.27 6.02ZM370.13 15.61L370.13 15.61L370.13 15.61Q370.06 15.04 370.03 14.36L370.03 14.36L370.03 14.36Q369.99 13.68 369.99 13.09L369.99 13.09L369.99 13.09Q369.99 12.15 370.06 11.29L370.06 11.29L370.06 11.29Q370.12 10.43 370.21 9.48L370.21 9.48L370.21 9.48Q370.30 8.54 370.41 7.43L370.41 7.43L370.41 7.43Q370.52 6.31 370.61 4.86L370.61 4.86L370.61 4.86Q370.79 4.86 371.13 4.96L371.13 4.96L371.13 4.96Q371.48 5.07 371.83 5.21L371.83 5.21L371.83 5.21Q372.18 5.35 372.44 5.49L372.44 5.49L372.44 5.49Q372.71 5.64 372.75 5.74L372.75 5.74L372.75 5.74Q372.51 6.29 372.32 7.18L372.32 7.18L372.32 7.18Q372.13 8.06 372.01 9.11L372.01 9.11L372.01 9.11Q371.88 10.16 371.81 11.27L371.81 11.27L371.81 11.27Q371.74 12.38 371.74 13.34L371.74 13.34L371.74 13.34Q371.74 13.79 371.76 14.22L371.76 14.22L371.76 14.22Q371.77 14.66 371.80 15.02L371.80 15.02L371.80 15.02Q372.09 14.59 372.48 13.78L372.48 13.78L372.48 13.78Q372.86 12.98 373.27 11.98L373.27 11.98L373.27 11.98Q373.69 10.99 374.10 9.91L374.10 9.91L374.10 9.91Q374.51 8.82 374.86 7.83L374.86 7.83L374.86 7.83Q375.21 6.85 375.46 6.05L375.46 6.05L375.46 6.05Q375.70 5.26 375.80 4.86L375.80 4.86L375.80 4.86Q375.98 4.86 376.34 4.96L376.34 4.96L376.34 4.96Q376.70 5.07 377.04 5.21L377.04 5.21L377.04 5.21Q377.38 5.35 377.65 5.49L377.65 5.49L377.65 5.49Q377.92 5.64 377.94 5.74L377.94 5.74L377.94 5.74Q377.71 6.29 377.52 7.18L377.52 7.18L377.52 7.18Q377.33 8.06 377.20 9.11L377.20 9.11L377.20 9.11Q377.08 10.16 377.01 11.27L377.01 11.27L377.01 11.27Q376.94 12.38 376.94 13.34L376.94 13.34L376.94 13.34Q376.94 13.75 376.94 14.15L376.94 14.15L376.94 14.15Q376.95 14.55 376.98 14.87L376.98 14.87L376.98 14.87Q377.43 13.71 377.91 12.56L377.91 12.56L377.91 12.56Q378.39 11.42 378.87 10.38L378.87 10.38L378.87 10.38Q379.34 9.34 379.79 8.43L379.79 8.43L379.79 8.43Q380.24 7.53 380.62 6.82L380.62 6.82L380.62 6.82Q381.00 6.12 381.28 5.66L381.28 5.66L381.28 5.66Q381.56 5.19 381.71 5.04L381.71 5.04L381.71 5.04Q382.03 5.08 382.38 5.27L382.38 5.27L382.38 5.27Q382.72 5.46 382.98 5.75L382.98 5.75L382.98 5.75Q382.58 6.08 382.06 6.81L382.06 6.81L382.06 6.81Q381.54 7.55 381.00 8.51L381.00 8.51L381.00 8.51Q380.45 9.48 379.90 10.57L379.90 10.57L379.90 10.57Q379.34 11.66 378.87 12.70L378.87 12.70L378.87 12.70Q378.39 13.73 378.02 14.63L378.02 14.63L378.02 14.63Q377.65 15.53 377.45 16.07L377.45 16.07L377.45 16.07Q377.09 16.24 376.74 16.24L376.74 16.24L376.74 16.24Q376.29 16.18 375.89 16.02L375.89 16.02L375.89 16.02Q375.49 15.85 375.33 15.61L375.33 15.61L375.33 15.61Q375.28 15.39 375.26 15.09L375.26 15.09L375.26 15.09Q375.23 14.78 375.21 14.49L375.21 14.49L375.21 14.49Q375.20 14.20 375.19 13.92L375.19 13.92L375.19 13.92Q375.19 13.65 375.19 13.45L375.19 13.45L375.19 13.45Q375.19 12.21 375.28 10.91L375.28 10.91L375.28 10.91Q375.38 9.62 375.52 8.13L375.52 8.13L375.52 8.13Q375.20 9.09 374.81 10.18L374.81 10.18L374.81 10.18Q374.42 11.27 373.99 12.34L373.99 12.34L373.99 12.34Q373.56 13.41 373.12 14.38L373.12 14.38L373.12 14.38Q372.68 15.36 372.26 16.07L372.26 16.07L372.26 16.07Q371.90 16.24 371.55 16.24L371.55 16.24L371.55 16.24Q371.10 16.18 370.70 16.02L370.70 16.02L370.70 16.02Q370.30 15.85 370.13 15.61ZM394.14 14.36L394.14 14.36L394.14 14.36Q394.14 13.78 394.34 12.85L394.34 12.85L394.34 12.85Q394.53 11.93 394.86 10.88L394.86 10.88L394.86 10.88Q393.93 10.95 393.00 11.06L393.00 11.06L393.00 11.06Q392.07 11.17 391.38 11.19L391.38 11.19L391.38 11.19Q390.75 12.66 390.38 13.89L390.38 13.89L390.38 13.89Q390.01 15.13 389.80 16.31L389.80 16.31L389.80 16.31Q389.27 16.18 388.92 15.87L388.92 15.87L388.92 15.87Q388.57 15.55 388.28 15.08L388.28 15.08L388.28 15.08Q388.39 14.85 388.53 14.50L388.53 14.50L388.53 14.50Q388.68 14.15 388.88 13.66L388.88 13.66L388.88 13.66Q389.09 13.16 389.35 12.50L389.35 12.50L389.35 12.50Q389.61 11.83 389.94 10.95L389.94 10.95L389.94 10.95Q389.48 10.75 389.33 10.40L389.33 10.40L389.33 10.40Q389.40 10.35 389.64 10.28L389.64 10.28L389.64 10.28Q389.89 10.22 390.25 10.15L390.25 10.15L390.43 9.70L390.43 9.70Q390.73 8.95 390.91 8.43L390.91 8.43L390.91 8.43Q391.10 7.91 391.24 7.41L391.24 7.41L391.24 7.41Q391.37 6.92 391.49 6.31L391.49 6.31L391.49 6.31Q391.61 5.71 391.78 4.79L391.78 4.79L391.78 4.79Q392.36 4.90 392.85 5.31L392.85 5.31L392.85 5.31Q393.33 5.71 393.68 6.29L393.68 6.29L393.68 6.29Q393.55 6.45 393.37 6.79L393.37 6.79L393.37 6.79Q393.19 7.13 392.97 7.59L392.97 7.59L392.97 7.59Q392.76 8.06 392.50 8.64L392.50 8.64L392.50 8.64Q392.25 9.23 391.96 9.87L391.96 9.87L391.96 9.87Q392.83 9.76 393.71 9.66L393.71 9.66L393.71 9.66Q394.60 9.56 395.29 9.52L395.29 9.52L395.29 9.52Q395.54 8.79 395.81 8.10L395.81 8.10L395.81 8.10Q396.09 7.41 396.35 6.83L396.35 6.83L396.35 6.83Q396.62 6.26 396.86 5.82L396.86 5.82L396.86 5.82Q397.11 5.39 397.31 5.18L397.31 5.18L397.31 5.18Q397.45 5.19 397.68 5.29L397.68 5.29L397.68 5.29Q397.91 5.38 398.15 5.50L398.15 5.50L398.15 5.50Q398.38 5.63 398.58 5.78L398.58 5.78L398.58 5.78Q398.78 5.92 398.85 6.05L398.85 6.05L398.85 6.05Q398.59 6.29 398.34 6.66L398.34 6.66L398.34 6.66Q398.09 7.04 397.84 7.53L397.84 7.53L397.84 7.53Q397.60 8.02 397.36 8.60L397.36 8.60L397.36 8.60Q397.12 9.17 396.91 9.79L396.91 9.79L396.91 9.79Q397.19 10.04 397.19 10.42L397.19 10.42L397.19 10.42Q397.19 10.68 397.08 10.91L397.08 10.91L397.08 10.91Q396.96 10.88 396.83 10.87L396.83 10.87L396.83 10.87Q396.70 10.86 396.56 10.85L396.56 10.85L396.56 10.85Q396.33 11.61 396.13 12.35L396.13 12.35L396.13 12.35Q395.93 13.09 395.80 13.76L395.80 13.76L395.80 13.76Q395.67 14.43 395.59 14.99L395.59 14.99L395.59 14.99Q395.51 15.55 395.51 15.93L395.51 15.93L395.51 15.93Q395.51 16.07 395.52 16.16L395.52 16.16L395.52 16.16Q395.53 16.24 395.54 16.30L395.54 16.30L395.54 16.30Q395.23 16.28 395.09 16.19L395.09 16.19L395.09 16.19Q394.95 16.10 394.88 16.00L394.88 16.00L394.88 16.00Q394.81 15.89 394.76 15.79L394.76 15.79L394.76 15.79Q394.70 15.68 394.58 15.62L394.58 15.62L394.58 15.62Q394.48 15.58 394.39 15.43L394.39 15.43L394.39 15.43Q394.31 15.27 394.25 15.08L394.25 15.08L394.25 15.08Q394.20 14.88 394.17 14.69L394.17 14.69L394.17 14.69Q394.14 14.49 394.14 14.36ZM405.76 16.24L405.76 16.24L405.76 16.24Q405.09 16.04 404.83 15.85L404.83 15.85L404.83 15.85Q404.57 15.65 404.57 15.36L404.57 15.36L404.57 15.36Q404.57 15.13 404.70 14.73L404.70 14.73L404.70 14.73Q404.82 14.32 405.07 13.77L405.07 13.77L405.07 13.77Q405.31 13.22 405.66 12.54L405.66 12.54L405.66 12.54Q406.00 11.87 406.43 11.10L406.43 11.10L406.43 11.10Q406.07 11.09 405.78 11.08L405.78 11.08L405.78 11.08Q405.50 11.07 405.31 11.07L405.31 11.07L405.31 11.07Q405.40 10.86 405.79 10.71L405.79 10.71L405.79 10.71Q406.18 10.56 406.83 10.44L406.83 10.44L406.83 10.44Q407.37 9.53 407.99 8.71L407.99 8.71L407.99 8.71Q408.62 7.88 409.25 7.19L409.25 7.19L409.25 7.19Q409.88 6.50 410.51 5.97L410.51 5.97L410.51 5.97Q411.14 5.45 411.71 5.14L411.71 5.14L411.71 5.14Q411.73 5.04 411.73 4.97L411.73 4.97L411.73 4.97Q411.74 4.90 411.74 4.87L411.74 4.87L411.74 4.87Q411.94 4.87 412.26 4.97L412.26 4.97L412.26 4.97Q412.59 5.07 412.91 5.21L412.91 5.21L412.91 5.21Q413.22 5.35 413.47 5.49L413.47 5.49L413.47 5.49Q413.71 5.64 413.74 5.74L413.74 5.74L413.74 5.74Q413.28 6.55 412.83 8.17L412.83 8.17L412.83 8.17Q412.38 9.79 412.09 12.04L412.09 12.04L412.09 12.04Q412.02 12.60 411.97 13.31L411.97 13.31L411.97 13.31Q411.92 14.03 411.92 14.91L411.92 14.91L411.92 14.91Q411.92 15.22 411.92 15.54L411.92 15.54L411.92 15.54Q411.92 15.86 411.95 16.21L411.95 16.21L411.95 16.21Q411.92 16.23 411.89 16.23L411.89 16.23L411.89 16.23Q411.87 16.23 411.78 16.23L411.78 16.23L411.78 16.23Q411.59 16.23 411.33 16.16L411.33 16.16L411.33 16.16Q411.07 16.10 410.82 16.01L410.82 16.01L410.82 16.01Q410.58 15.92 410.40 15.81L410.40 15.81L410.40 15.81Q410.23 15.69 410.19 15.61L410.19 15.61L410.19 15.61Q410.17 15.43 410.17 15.25L410.17 15.25L410.17 15.25Q410.17 15.08 410.17 14.88L410.17 14.88L410.17 14.88Q410.17 14.01 410.23 13.12L410.23 13.12L410.23 13.12Q410.30 12.22 410.45 11.27L410.45 11.27L410.45 11.27Q410.26 11.26 409.93 11.23L409.93 11.23L409.93 11.23Q409.61 11.21 409.21 11.20L409.21 11.20L409.21 11.20Q408.81 11.19 408.36 11.16L408.36 11.16L408.36 11.16Q407.90 11.14 407.47 11.13L407.47 11.13L407.47 11.13Q407.13 11.76 406.84 12.38L406.84 12.38L406.84 12.38Q406.55 13.01 406.34 13.64L406.34 13.64L406.34 13.64Q406.10 14.31 405.95 14.98L405.95 14.98L405.95 14.98Q405.80 15.65 405.76 16.24ZM411.17 7.83L411.17 7.83L411.17 7.83Q411.22 7.63 411.30 7.29L411.30 7.29L411.30 7.29Q411.38 6.94 411.45 6.57L411.45 6.57L411.45 6.57Q411.10 6.69 410.67 7.03L410.67 7.03L410.67 7.03Q410.24 7.36 409.79 7.86L409.79 7.86L409.79 7.86Q409.33 8.36 408.86 8.98L408.86 8.98L408.86 8.98Q408.39 9.60 407.96 10.30L407.96 10.30L407.96 10.30Q409.14 10.21 410.63 10.18L410.63 10.18L410.63 10.18Q410.75 9.59 410.88 9.01L410.88 9.01L410.88 9.01Q411.01 8.43 411.17 7.83ZM423.32 6.69L423.32 6.69L423.32 6.69Q422.76 6.69 422.46 6.38L422.46 6.38L422.46 6.38Q422.16 6.06 422.16 5.61L422.16 5.61L422.16 5.61Q422.16 5.50 422.19 5.35L422.19 5.35L422.19 5.35Q422.23 5.19 422.28 5.08L422.28 5.08L422.28 5.08Q422.46 5.17 422.82 5.20L422.82 5.20L422.82 5.20Q423.18 5.24 423.65 5.24L423.65 5.24L423.65 5.24Q424.37 5.24 425.27 5.17L425.27 5.17L425.27 5.17Q426.17 5.11 427.00 5.04L427.00 5.04L427.00 5.04Q427.83 4.97 428.46 4.91L428.46 4.91L428.46 4.91Q429.09 4.84 429.27 4.84L429.27 4.84L429.27 4.84Q429.79 4.84 430.02 5.23L430.02 5.23L430.02 5.23Q430.25 5.61 430.36 6.26L430.36 6.26L430.36 6.26Q430.00 6.23 429.64 6.21L429.64 6.21L429.64 6.21Q429.28 6.19 429.03 6.19L429.03 6.19L429.03 6.19Q428.58 6.19 428.13 6.22L428.13 6.22L428.13 6.22Q427.67 6.24 427.21 6.30L427.21 6.30L427.21 6.30Q427.01 6.71 426.78 7.26L426.78 7.26L426.78 7.26Q426.54 7.81 426.31 8.41L426.31 8.41L426.31 8.41Q426.08 9.02 425.87 9.61L425.87 9.61L425.87 9.61Q425.66 10.21 425.50 10.68L425.50 10.68L425.50 10.68Q425.19 11.61 424.96 12.39L424.96 12.39L424.96 12.39Q424.73 13.17 424.56 13.85L424.56 13.85L424.56 13.85Q424.38 14.53 424.26 15.15L424.26 15.15L424.26 15.15Q424.13 15.76 424.03 16.35L424.03 16.35L424.03 16.35Q423.09 16.21 422.46 15.18L422.46 15.18L422.46 15.18Q422.58 14.74 422.74 14.23L422.74 14.23L422.74 14.23Q422.90 13.72 423.11 13.07L423.11 13.07L423.11 13.07Q423.33 12.42 423.63 11.59L423.63 11.59L423.63 11.59Q423.92 10.77 424.30 9.72L424.30 9.72L424.30 9.72Q424.44 9.32 424.59 8.90L424.59 8.90L424.59 8.90Q424.75 8.47 424.89 8.05L424.89 8.05L424.89 8.05Q425.04 7.63 425.16 7.24L425.16 7.24L425.16 7.24Q425.28 6.85 425.36 6.52L425.36 6.52L425.36 6.52Q424.77 6.59 424.25 6.64L424.25 6.64L424.25 6.64Q423.72 6.69 423.32 6.69Z"></path></g></svg>